<svg version="1.1" id="Layer_1" xmlns="http://www.w3.org/2000/svg" xmlns:xlink="http://www.w3.org/1999/xlink" x="0px" y="0px"
	 width="100%" viewBox="0 0 2344 2284" enable-background="new 0 0 2344 2284" xml:space="preserve">
<path fill="#000000" opacity="1.000000" stroke="none" 
	d="
M1242.000000,2.000000 
	C1609.966675,2.000000 1977.933472,2.000000 2345.950195,2.000000 
	C2345.950195,763.231262 2345.950195,1524.462524 2345.950195,2285.846924 
	C1564.839355,2285.846924 783.678650,2285.846924 2.258974,2285.846924 
	C2.258974,1524.908203 2.258974,763.816284 2.258974,2.000000 
	C370.058441,2.000000 738.117371,2.000000 1106.918213,2.759671 
	C1105.890259,4.245708 1104.175171,5.393876 1102.341797,5.632389 
	C1086.180908,7.734838 1069.963257,9.424249 1053.829590,11.709205 
	C995.485901,19.972218 939.181091,36.001026 884.656555,58.023182 
	C826.048767,81.694534 771.157654,112.165268 720.124756,149.688141 
	C665.562134,189.806351 617.265320,236.253052 575.808777,289.731934 
	C538.290283,338.130829 507.210510,390.350952 483.362335,446.888855 
	C451.433105,522.584961 434.010651,601.516846 430.488251,683.422852 
	C429.116638,715.316895 430.168945,747.264404 433.475708,779.159607 
	C436.952820,812.697998 442.486725,845.817444 450.789978,878.417297 
	C465.577209,936.474243 487.620422,991.696106 517.039673,1043.969116 
	C546.934509,1097.087036 583.199463,1145.446655 625.095520,1189.612061 
	C647.357117,1213.079468 671.582275,1234.441650 696.847351,1254.618530 
	C741.010803,1289.887817 788.728210,1319.391113 839.590820,1344.085449 
	C896.573792,1371.751221 956.053711,1391.882446 1018.096008,1403.991211 
	C1048.419434,1409.909546 1079.176270,1414.002075 1109.912231,1417.273315 
	C1130.347656,1419.448242 1151.093384,1418.708008 1172.644409,1419.431152 
	C1200.883667,1420.344116 1228.078979,1418.742920 1255.220581,1416.034180 
	C1303.941895,1411.171753 1351.729126,1401.619629 1398.707031,1387.799194 
	C1468.458984,1367.279053 1533.735229,1336.947021 1594.682251,1297.533447 
	C1646.298950,1264.153442 1693.251099,1225.043335 1734.971924,1179.697998 
	C1763.440918,1148.755737 1789.356201,1115.874878 1812.032959,1080.528564 
	C1838.329834,1039.539551 1860.301514,996.299500 1877.527344,950.674072 
	C1900.932373,888.682556 1915.047241,824.575745 1919.361938,758.570923 
	C1921.659790,723.419800 1921.429077,688.089783 1918.442993,652.844360 
	C1915.914307,622.997192 1911.661499,593.420898 1905.144165,564.241394 
	C1890.848511,500.236328 1868.057617,439.342316 1836.164062,381.973785 
	C1805.772095,327.306427 1768.872803,277.366211 1725.596802,232.228714 
	C1699.308594,204.809631 1670.762085,179.880112 1640.487183,156.888870 
	C1576.068848,107.968582 1505.633545,70.431725 1429.140503,44.193592 
	C1376.130615,26.010445 1321.907104,13.262000 1266.094238,7.579936 
	C1259.162598,6.874256 1252.213501,6.322062 1245.299072,5.480035 
	C1243.593872,5.272374 1240.442261,5.644308 1242.000000,2.000000 
M1161.013916,1667.759033 
	C1151.799194,1667.636597 1142.584595,1667.514038 1132.554443,1667.380737 
	C1132.235474,1662.283813 1131.789917,1658.397949 1131.781372,1654.510986 
	C1131.720093,1626.527466 1131.786255,1598.543335 1131.701904,1570.559814 
	C1131.690186,1566.699341 1131.072754,1562.840698 1130.659424,1558.106689 
	C1114.248291,1557.768677 1098.799805,1557.078979 1083.616821,1558.576782 
	C1081.053589,1568.278198 1081.076050,1809.902588 1083.661865,1819.525635 
	C1099.082886,1820.528931 1114.752563,1820.986206 1131.124634,1819.192505 
	C1131.362549,1814.340820 1131.715088,1810.417114 1131.721924,1806.492798 
	C1131.770752,1778.508911 1131.712524,1750.525024 1131.792603,1722.541382 
	C1131.803589,1718.690308 1132.390137,1714.840820 1132.682739,1711.320679 
	C1144.884033,1708.701294 1233.640625,1709.268555 1241.690430,1712.041992 
	C1241.861572,1715.658447 1242.201904,1719.584595 1242.208496,1723.511353 
	C1242.255737,1751.495117 1242.199341,1779.479126 1242.276367,1807.462646 
	C1242.286987,1811.326172 1242.850220,1815.188110 1243.132690,1818.738281 
	C1254.871338,1821.175171 1285.148682,1820.719604 1292.381836,1818.236206 
	C1294.805176,1807.102295 1294.222900,1566.437988 1291.466431,1558.289917 
	C1275.691040,1557.683960 1259.636963,1556.913208 1242.397705,1558.912476 
	C1242.284546,1595.252075 1242.174194,1630.696533 1242.065430,1665.607422 
	C1239.744751,1666.628296 1238.849976,1667.361694 1237.950317,1667.367920 
	C1212.970581,1667.543091 1187.990234,1667.644531 1161.013916,1667.759033 
M1801.099487,1631.915894 
	C1793.502808,1610.241821 1786.006836,1588.531616 1778.261353,1566.910889 
	C1775.014160,1557.846313 1774.774536,1557.855469 1765.449219,1557.786011 
	C1754.127441,1557.701538 1742.804199,1557.721191 1731.482056,1557.774170 
	C1720.454712,1557.825806 1720.446045,1557.866089 1716.694458,1568.520508 
	C1708.845093,1590.812622 1701.007568,1613.108765 1693.162842,1635.402222 
	C1673.164307,1692.234131 1653.147583,1749.059692 1633.202026,1805.910156 
	C1631.817749,1809.855713 1630.957397,1813.984863 1629.562012,1819.096558 
	C1633.632202,1819.571167 1636.481079,1820.158569 1639.336304,1820.190796 
	C1649.658325,1820.307739 1659.994995,1819.933960 1670.301514,1820.350342 
	C1676.655151,1820.607056 1680.027466,1818.214478 1681.989258,1812.211426 
	C1685.917114,1800.192627 1690.598145,1788.419678 1694.503174,1776.394165 
	C1696.461304,1770.363892 1699.862305,1768.103394 1706.181152,1768.158325 
	C1733.819092,1768.398315 1761.460693,1768.202759 1789.100342,1768.295166 
	C1797.569214,1768.323486 1797.707153,1768.542480 1800.549683,1776.446777 
	C1804.942383,1788.662476 1809.377563,1800.866455 1813.501709,1813.173584 
	C1815.086548,1817.902954 1817.574829,1820.349731 1822.803833,1820.263306 
	C1835.121704,1820.059692 1847.445557,1820.239380 1859.765381,1820.109131 
	C1861.591675,1820.089844 1863.408936,1819.228882 1866.576538,1818.408813 
	C1845.337158,1756.080200 1823.233032,1694.820679 1801.099487,1631.915894 
M317.540802,1588.506104 
	C307.015717,1618.331299 296.480743,1648.152832 285.967743,1677.982422 
	C270.696136,1721.314087 255.414139,1764.642212 240.230316,1808.004639 
	C239.075027,1811.303955 238.663605,1814.863892 237.746216,1819.030151 
	C241.471451,1819.533936 244.031265,1820.152100 246.597473,1820.179810 
	C257.254761,1820.295166 267.915375,1820.338745 278.572052,1820.200562 
	C286.769348,1820.094360 287.033722,1819.799927 289.882446,1811.794922 
	C294.012451,1800.189453 298.060760,1788.554810 302.180878,1776.945801 
	C305.204987,1768.424683 305.231049,1768.301147 314.207825,1768.277954 
	C341.187103,1768.208252 368.166748,1768.217529 395.146118,1768.268799 
	C405.519073,1768.288452 405.583923,1768.354370 409.262848,1778.543945 
	C413.332947,1789.816650 417.497009,1801.064453 421.164276,1812.469727 
	C422.973663,1818.096558 426.004822,1820.499878 431.998535,1820.325195 
	C443.313690,1819.995361 454.646179,1820.307861 465.968933,1820.158691 
	C468.418213,1820.126465 470.856659,1819.271484 474.266724,1818.607056 
	C472.790070,1813.921875 471.719543,1810.155884 470.423798,1806.469116 
	C450.442047,1749.617798 430.431396,1692.776733 410.426697,1635.933472 
	C402.248260,1612.694336 394.035675,1589.466919 385.916779,1566.207031 
	C384.308990,1561.600830 382.714905,1557.630493 376.573853,1557.736938 
	C362.589050,1557.979980 348.595642,1557.943970 334.609222,1557.756836 
	C329.679871,1557.690918 327.453766,1560.209229 326.033997,1564.416992 
	C323.479797,1571.986938 320.745056,1579.495728 317.540802,1588.506104 
M894.872620,1820.248657 
	C900.340210,1819.653687 906.186890,1821.757935 912.256958,1817.452393 
	C912.256958,1814.006104 912.256897,1810.055298 912.257019,1806.104492 
	C912.257751,1780.793457 912.215881,1755.482422 912.305298,1730.171631 
	C912.318787,1726.354980 912.944702,1722.540405 913.374146,1717.758423 
	C918.802734,1717.758423 923.084412,1717.869751 927.358704,1717.738770 
	C943.640076,1717.240356 960.061401,1717.829712 976.168091,1715.863770 
	C1005.941406,1712.229736 1029.909302,1699.039551 1042.760742,1670.104614 
	C1056.232666,1639.772705 1049.277466,1602.431152 1025.412598,1580.957031 
	C1008.020508,1565.307129 986.653809,1559.038452 963.853149,1558.415527 
	C933.569458,1557.588257 903.254150,1557.890259 872.952209,1557.806763 
	C869.787537,1557.797974 866.621094,1558.461548 863.825745,1558.772095 
	C861.212708,1570.854004 861.766479,1811.607300 864.615417,1820.249390 
	C873.733276,1820.249390 883.320496,1820.249390 894.872620,1820.248657 
M674.016541,1558.203247 
	C668.520447,1560.572632 670.325806,1565.553955 670.320374,1569.544556 
	C670.212769,1649.200073 670.228027,1728.855591 670.279663,1808.511230 
	C670.281982,1812.041382 670.864563,1815.571411 671.148621,1818.782837 
	C684.122192,1821.383057 811.359863,1820.688477 819.567444,1817.806763 
	C819.567444,1806.641846 819.617676,1795.057129 819.534424,1783.473511 
	C819.511780,1780.324341 817.613953,1778.607178 814.482605,1778.435303 
	C811.823059,1778.289307 809.155518,1778.236328 806.491394,1778.234741 
	C782.161438,1778.219727 757.831421,1778.256958 733.501587,1778.192749 
	C729.613586,1778.182495 725.726685,1777.744385 721.116638,1777.459473 
	C720.786987,1773.411743 720.312195,1770.180054 720.296387,1766.946167 
	C720.218018,1750.948730 720.197510,1734.950317 720.283936,1718.953003 
	C720.339294,1708.698364 720.719910,1708.306885 731.046875,1708.268433 
	C752.377014,1708.188965 773.707703,1708.280151 795.037842,1708.203369 
	C798.924255,1708.189453 802.809021,1707.711670 807.412048,1707.399292 
	C808.566650,1693.501709 808.985840,1680.493530 807.101135,1666.436157 
	C778.064636,1665.880981 749.897278,1666.675537 720.473816,1665.936279 
	C720.174622,1643.418335 720.038208,1622.343750 720.558533,1600.545044 
	C725.204529,1600.213257 728.442993,1599.829468 731.686523,1599.781616 
	C738.684021,1599.678467 745.684143,1599.747681 752.683167,1599.747070 
	C771.347229,1599.745605 790.011475,1599.797485 808.675293,1599.723389 
	C819.453918,1599.680542 819.661865,1599.410767 819.747437,1588.323364 
	C819.804016,1580.991577 819.851990,1573.656372 819.673828,1566.328247 
	C819.612366,1563.797974 818.856262,1561.284546 818.270081,1557.916748 
	C770.361206,1557.916748 723.089355,1557.916748 674.016541,1558.203247 
M2001.504883,1763.421143 
	C1983.133911,1710.226196 1964.757935,1657.032837 1946.395630,1603.834839 
	C1942.483887,1592.501831 1938.740479,1581.109253 1934.702881,1569.821533 
	C1930.382202,1557.742676 1930.270508,1557.768555 1917.821411,1557.736450 
	C1908.826050,1557.713257 1899.830200,1557.673828 1890.835815,1557.766724 
	C1887.595581,1557.800171 1884.359253,1558.198730 1879.762939,1558.527954 
	C1881.118164,1563.311768 1881.923950,1567.109009 1883.255737,1570.711670 
	C1898.725952,1612.564209 1914.287476,1654.382935 1929.800415,1696.219604 
	C1943.694092,1733.689453 1957.540039,1771.177002 1971.445312,1808.642578 
	C1975.736450,1820.204224 1975.793823,1820.204468 1987.678101,1820.240356 
	C1998.005981,1820.271484 2008.334106,1820.275513 2018.661987,1820.239014 
	C2030.391846,1820.197510 2030.477905,1820.204102 2034.488403,1809.412354 
	C2045.972656,1778.508301 2057.365967,1747.570435 2068.822021,1716.655762 
	C2086.410400,1669.192017 2104.051025,1621.747803 2121.576660,1574.260864 
	C2123.347656,1569.462158 2124.481445,1564.428345 2126.210449,1558.471680 
	C2108.734375,1558.471680 2092.890869,1558.471680 2076.687500,1558.471680 
	C2075.290527,1561.867432 2073.886475,1564.866699 2072.802979,1567.977661 
	C2059.222656,1606.971436 2045.681885,1645.978882 2032.145020,1684.987793 
	C2023.519653,1709.843262 2014.951660,1734.718750 2006.242432,1759.544678 
	C2005.538452,1761.551514 2006.142334,1765.161499 2001.504883,1763.421143 
M1529.000000,1557.771484 
	C1511.339722,1557.771606 1493.676514,1557.568848 1476.020142,1557.829346 
	C1458.537476,1558.087280 1440.979858,1556.665527 1422.907837,1558.836426 
	C1422.014404,1572.875122 1421.745728,1585.954956 1423.088013,1600.455078 
	C1445.692505,1600.455078 1467.177612,1600.455078 1489.449951,1600.455078 
	C1489.765137,1606.084351 1490.204590,1610.307251 1490.207520,1614.530518 
	C1490.251587,1678.507202 1490.221313,1742.484009 1490.278564,1806.460693 
	C1490.282349,1810.655884 1490.854858,1814.850586 1491.189697,1819.412109 
	C1507.669922,1819.412109 1523.124023,1819.412109 1539.486694,1819.412109 
	C1539.768433,1814.100342 1540.217041,1809.543701 1540.220337,1804.986938 
	C1540.267700,1740.343750 1540.232422,1675.700562 1540.279053,1611.057373 
	C1540.286499,1600.721558 1540.713379,1600.332886 1550.938354,1600.271973 
	C1566.265625,1600.180786 1581.594238,1600.308228 1596.921143,1600.189697 
	C1600.405640,1600.162720 1603.885376,1599.508423 1607.414185,1599.137939 
	C1607.414185,1585.065186 1607.414185,1572.244629 1607.414185,1559.623047 
	C1605.745239,1558.904297 1604.852783,1558.188477 1603.955078,1558.181763 
	C1579.637085,1558.000610 1555.318481,1557.891724 1529.000000,1557.771484 
M529.069580,1820.248535 
	C548.062622,1820.248413 567.056519,1820.366089 586.048401,1820.214600 
	C604.862061,1820.064453 623.719604,1820.908081 643.109802,1819.626465 
	C643.947021,1805.755249 644.370667,1793.337280 642.824524,1779.518188 
	C614.281067,1779.518188 586.794250,1779.518188 558.531311,1779.518188 
	C558.222290,1773.898804 557.789673,1769.667725 557.786804,1765.436523 
	C557.743408,1701.126709 557.775513,1636.816772 557.715027,1572.506958 
	C557.710754,1567.987305 557.119995,1563.468018 556.748474,1558.188721 
	C540.215637,1557.744385 524.761353,1557.066528 509.576813,1558.597046 
	C506.986511,1568.657349 507.117462,1810.270752 509.820435,1819.842896 
	C515.313599,1819.972046 521.207886,1820.110596 529.069580,1820.248535 
M1303.879272,1995.232666 
	C1302.408325,1993.429932 1300.971924,1991.597534 1299.461060,1989.828735 
	C1274.685547,1960.823242 1228.124512,1957.637207 1200.017822,1983.390137 
	C1176.401001,2005.029297 1170.975952,2032.303101 1179.595459,2061.913574 
	C1188.038330,2090.916748 1208.712158,2107.599365 1238.797485,2110.988037 
	C1266.613159,2114.121582 1290.026489,2104.238281 1304.845337,2080.495850 
	C1321.907349,2053.159668 1321.319336,2024.433472 1303.879272,1995.232666 
M1356.257080,2035.000732 
	C1356.416992,2022.237671 1355.924561,2009.447021 1357.637817,1996.419189 
	C1361.838013,2000.739380 1364.951904,2005.327148 1368.000732,2009.957764 
	C1388.321411,2040.820435 1408.582886,2071.722168 1428.968506,2102.541748 
	C1434.708862,2111.220703 1436.953247,2111.758789 1447.036377,2108.158447 
	C1449.330933,2096.260254 1448.691895,1976.221558 1446.000732,1968.131836 
	C1442.507568,1968.288208 1438.762451,1968.455933 1434.357666,1968.653076 
	C1434.119507,1973.618286 1433.773926,1977.541260 1433.768066,1981.464722 
	C1433.722778,2011.766724 1433.783813,2042.068970 1433.678223,2072.370605 
	C1433.667969,2075.297363 1434.970459,2078.762207 1431.625488,2081.791260 
	C1429.190674,2078.316162 1427.041504,2075.398193 1425.046631,2072.378418 
	C1403.762329,2040.157837 1382.537109,2007.898071 1361.213745,1975.703369 
	C1355.336670,1966.830078 1353.751953,1966.419922 1343.174683,1969.583496 
	C1340.970337,1979.288086 1341.211914,2100.789062 1343.630859,2109.378418 
	C1347.190186,2109.378418 1350.929077,2109.378418 1356.084961,2109.378418 
	C1356.432861,2084.741699 1356.176636,2060.867432 1356.257080,2035.000732 
M1509.187256,2041.911987 
	C1517.788452,2044.529419 1526.640991,2046.542847 1534.900635,2049.980957 
	C1540.220459,2052.195312 1545.797363,2055.620850 1549.266479,2060.060303 
	C1555.776367,2068.391113 1553.916870,2081.729004 1546.660400,2089.520020 
	C1535.273071,2101.746338 1501.912231,2103.363281 1492.755127,2081.125488 
	C1488.574097,2070.972168 1486.886719,2070.471924 1475.072021,2074.167725 
	C1475.132202,2086.432129 1480.910400,2095.873291 1490.853760,2102.310303 
	C1508.697998,2113.862061 1527.939575,2115.091309 1547.027954,2106.050293 
	C1561.944702,2098.985352 1568.870361,2086.273193 1568.289795,2069.545898 
	C1567.729248,2053.392822 1558.609985,2043.897095 1544.430786,2038.397217 
	C1537.924683,2035.873535 1531.109863,2034.157959 1524.526123,2031.819214 
	C1517.016479,2029.151367 1509.406860,2026.630493 1502.198975,2023.275879 
	C1488.127075,2016.726562 1489.056519,1993.935791 1499.752686,1985.722412 
	C1513.582153,1975.103149 1538.351440,1978.710693 1547.674316,1993.368896 
	C1553.757080,2002.932617 1554.656982,2003.267944 1566.067261,2000.220825 
	C1565.820435,1991.872681 1563.768555,1987.449341 1558.833252,1981.368042 
	C1541.984131,1960.605957 1505.591431,1963.476562 1490.188843,1975.387573 
	C1468.481934,1992.173340 1471.510010,2027.581787 1496.509033,2037.126953 
	C1500.239746,2038.551270 1503.951538,2040.025513 1509.187256,2041.911987 
M1091.353760,2060.441406 
	C1095.772217,2069.882324 1096.056274,2079.276611 1089.549072,2087.761230 
	C1077.823853,2103.049561 1043.106323,2102.634277 1034.465088,2081.093262 
	C1030.354004,2070.845215 1027.923828,2070.240967 1016.849609,2074.542236 
	C1016.621094,2082.828125 1020.101379,2089.735107 1025.375732,2095.961914 
	C1035.226807,2107.592285 1048.726074,2111.213379 1062.967529,2111.561035 
	C1078.111694,2111.931152 1091.843628,2107.552979 1102.098999,2095.234619 
	C1116.456055,2077.989990 1111.825928,2051.664795 1092.039917,2041.325684 
	C1085.614624,2037.968262 1078.450684,2036.004395 1071.582031,2033.520508 
	C1062.826782,2030.354492 1053.639771,2028.101440 1045.333984,2024.035278 
	C1030.681641,2016.862183 1028.210449,1998.023071 1039.803223,1987.055420 
	C1050.176392,1977.241455 1079.402100,1974.840820 1089.952759,1993.900146 
	C1095.149048,2003.286865 1096.753540,2003.531494 1107.181396,1999.687500 
	C1107.502686,1987.680542 1098.644653,1975.440186 1085.759155,1970.411621 
	C1072.252197,1965.140625 1058.485352,1964.656128 1044.651489,1968.987183 
	C1027.739502,1974.281860 1018.043823,1986.771362 1017.734619,2003.330933 
	C1017.384705,2022.073242 1024.839233,2032.819458 1043.250488,2039.235474 
	C1052.672974,2042.519043 1062.306274,2045.208984 1071.882324,2048.037842 
	C1079.052002,2050.155762 1085.578857,2053.231934 1091.353760,2060.441406 
M947.518921,2097.177246 
	C942.868958,2097.319580 938.169312,2097.963867 933.578491,2097.509277 
	C920.282837,2096.192383 909.991211,2089.917480 905.486633,2076.945801 
	C903.351135,2070.796143 902.473511,2063.946533 902.385986,2057.395752 
	C902.043396,2031.755737 902.282288,2006.108154 902.199341,1980.463745 
	C902.186829,1976.606323 901.611511,1972.750854 901.321167,1969.195801 
	C887.369751,1966.546021 886.272339,1967.366699 886.247437,1980.112549 
	C886.202515,2003.092773 886.015564,2026.076538 886.366211,2049.051758 
	C886.497559,2057.658203 887.184448,2066.407959 888.952576,2074.811768 
	C897.602966,2115.927246 951.382935,2120.092773 974.389771,2099.039551 
	C985.221191,2089.127930 989.921631,2076.635986 990.102234,2062.518066 
	C990.468506,2033.880737 990.253357,2005.235474 990.179138,1976.593750 
	C990.172546,1974.050659 989.442932,1971.509399 989.019958,1968.779175 
	C984.591675,1968.779175 980.845520,1968.779175 976.382141,1968.779175 
	C976.140686,1973.555420 975.780457,1977.473999 975.771118,1981.393433 
	C975.716431,2004.373535 975.838623,2027.354492 975.678406,2050.333740 
	C975.636841,2056.292725 975.014771,2062.273193 974.283691,2068.197510 
	C972.410461,2083.376709 964.277893,2093.186035 947.518921,2097.177246 
M844.920288,1980.239014 
	C849.910034,1980.197388 854.919495,1980.415771 859.883972,1980.039917 
	C864.691650,1979.676025 866.720093,1976.214844 865.324951,1971.668457 
	C864.005066,1967.367554 860.358032,1967.818481 857.114868,1967.809326 
	C836.820129,1967.752075 816.524902,1967.737671 796.230652,1967.850098 
	C793.724426,1967.863892 791.222778,1968.713379 789.026978,1969.118774 
	C786.572449,1982.620728 787.310364,2101.949219 790.027771,2109.915283 
	C793.515442,2109.753662 797.257935,2109.580078 801.639709,2109.376953 
	C801.881409,2104.744141 802.214172,2101.156250 802.230408,2097.566650 
	C802.295105,2083.260498 802.187805,2068.953613 802.289307,2054.647949 
	C802.359070,2044.822388 802.787292,2044.384766 812.329285,2044.283081 
	C824.305359,2044.155518 836.283508,2044.223755 848.260803,2044.205078 
	C852.283081,2044.198853 855.550354,2043.417114 855.574219,2038.286621 
	C855.597961,2033.191895 852.443787,2032.285767 848.357727,2032.285156 
	C837.045898,2032.283203 825.733459,2032.318115 814.422485,2032.210205 
	C810.877441,2032.176392 807.336243,2031.734863 804.439453,2031.526611 
	C803.540955,2029.968140 802.937622,2029.406494 802.928894,2028.835571 
	C802.709656,2014.551392 802.486633,2000.266724 802.421448,1985.981445 
	C802.398560,1980.960083 806.027283,1980.274292 810.003723,1980.272949 
	C820.982910,1980.269409 831.962097,1980.251709 844.920288,1980.239014 
M1136.204468,2094.769043 
	C1136.208862,2096.763672 1136.154175,2098.760742 1136.227661,2100.752686 
	C1136.562866,2109.837402 1137.745117,2110.853271 1147.091797,2109.992188 
	C1148.045166,2109.904053 1148.957397,2109.370361 1149.821289,2109.067139 
	C1152.547485,2100.755859 1152.630615,1977.855957 1149.778076,1968.646973 
	C1145.873779,1968.646973 1141.799194,1968.646973 1136.303711,1968.646973 
	C1136.100220,2010.586792 1136.250122,2051.711426 1136.204468,2094.769043 
z"/>
<path fill="#D8990B" opacity="1.000000" stroke="none" 
	d="
M1241.062744,2.000000 
	C1240.442261,5.644308 1243.593872,5.272374 1245.299072,5.480035 
	C1252.213501,6.322062 1259.162598,6.874256 1266.094238,7.579936 
	C1321.907104,13.262000 1376.130615,26.010445 1429.140503,44.193592 
	C1505.633545,70.431725 1576.068848,107.968582 1640.487183,156.888870 
	C1670.762085,179.880112 1699.308594,204.809631 1725.596802,232.228714 
	C1768.872803,277.366211 1805.772095,327.306427 1836.164062,381.973785 
	C1868.057617,439.342316 1890.848511,500.236328 1905.144165,564.241394 
	C1911.661499,593.420898 1915.914307,622.997192 1918.442993,652.844360 
	C1921.429077,688.089783 1921.659790,723.419800 1919.361938,758.570923 
	C1915.047241,824.575745 1900.932373,888.682556 1877.527344,950.674072 
	C1860.301514,996.299500 1838.329834,1039.539551 1812.032959,1080.528564 
	C1789.356201,1115.874878 1763.440918,1148.755737 1734.971924,1179.697998 
	C1693.251099,1225.043335 1646.298950,1264.153442 1594.682251,1297.533447 
	C1533.735229,1336.947021 1468.458984,1367.279053 1398.707031,1387.799194 
	C1351.729126,1401.619629 1303.941895,1411.171753 1255.220581,1416.034180 
	C1228.078979,1418.742920 1200.883667,1420.344116 1172.654297,1418.552124 
	C1171.877563,1370.380371 1172.035278,1323.246094 1173.056641,1275.978760 
	C1180.198242,1275.345337 1186.477783,1274.400146 1192.754150,1274.421509 
	C1219.068115,1274.511230 1245.116089,1271.668457 1271.094604,1267.886108 
	C1309.007568,1262.366455 1346.025757,1253.102173 1382.225708,1240.670044 
	C1420.692627,1227.459473 1457.475098,1210.477539 1492.595093,1189.939453 
	C1545.828247,1158.808716 1593.367065,1120.548828 1634.502319,1074.640015 
	C1670.410400,1034.565186 1700.973999,990.651245 1723.284302,941.522888 
	C1733.571777,918.869507 1741.918091,895.333252 1751.057495,872.163025 
	C1751.744019,870.422668 1751.733154,868.407227 1752.046509,866.519653 
	C1748.707397,868.689453 1746.727539,871.543030 1744.869263,874.473755 
	C1724.695312,906.290771 1699.518066,933.594910 1669.427979,956.134094 
	C1600.799805,1007.540527 1523.545410,1029.153198 1438.103760,1022.410645 
	C1388.865479,1018.524963 1342.951538,1004.147339 1300.213379,979.734009 
	C1273.245483,964.329224 1248.308838,946.118835 1227.797852,921.513000 
	C1227.879639,914.264038 1227.952637,907.982056 1227.955933,901.700073 
	C1227.970459,874.256042 1227.932495,846.811890 1228.000610,819.367981 
	C1228.010986,815.197754 1227.050903,810.529602 1232.213623,808.645996 
	C1236.352417,816.215332 1240.116577,823.179443 1244.108765,830.010315 
	C1263.260254,862.780151 1289.007690,889.476929 1320.648804,910.114746 
	C1380.470825,949.133362 1446.143311,961.929688 1516.120728,949.180847 
	C1576.737183,938.137390 1628.166504,909.240540 1667.609131,861.546936 
	C1716.436646,802.505005 1733.780396,734.512817 1716.409912,659.800476 
	C1697.518433,578.546082 1646.208496,523.258667 1570.620361,490.136993 
	C1526.689697,470.887177 1480.376465,465.140411 1432.984009,471.791901 
	C1344.776367,484.171753 1278.223511,528.557251 1235.812988,607.715210 
	C1234.506470,610.153687 1232.224731,612.069519 1229.938843,613.515381 
	C1228.974365,608.583740 1228.051392,604.367859 1228.030640,600.147522 
	C1227.897217,573.046814 1228.065186,545.944397 1227.874756,518.844421 
	C1227.835693,513.282654 1226.699341,507.728607 1226.368408,501.570312 
	C1234.342407,493.594513 1241.685547,485.834351 1249.744019,478.906403 
	C1303.396240,432.781464 1365.881470,406.986145 1436.053955,400.618530 
	C1468.190918,397.702332 1500.428467,398.974854 1532.361206,405.535095 
	C1613.914185,422.289215 1680.437744,462.999634 1731.318115,528.983154 
	C1738.562988,538.378662 1745.180664,548.257812 1752.049072,558.380859 
	C1752.387695,559.300537 1752.765869,559.752502 1753.144043,560.204529 
	C1753.271240,559.911560 1753.575439,559.430786 1753.496460,559.356323 
	C1753.013306,558.900696 1752.443359,558.537170 1752.249023,557.388062 
	C1751.826538,553.406616 1751.282959,550.106079 1750.254272,546.964478 
	C1738.627808,511.463715 1723.789429,477.331177 1705.094238,445.005524 
	C1665.458618,376.471893 1614.077515,318.341339 1550.618042,270.777130 
	C1488.365356,224.117584 1419.740356,190.785568 1344.934326,169.840515 
	C1310.297241,160.142426 1275.038330,153.686646 1239.307373,150.095505 
	C1218.188965,147.973022 1196.929443,147.254059 1175.716797,144.972809 
	C1175.692383,124.504601 1175.640869,104.967438 1175.687500,85.430511 
	C1175.753784,57.620255 1175.892334,29.810163 1176.000000,2.000000 
	C1197.375122,2.000000 1218.750244,2.000000 1241.062744,2.000000 
M1752.911011,863.580078 
	C1752.911011,863.580078 1753.184204,862.870728 1753.184204,862.870728 
	C1753.184204,862.870728 1752.481689,863.069946 1752.911011,863.580078 
z"/>
<path fill="#0E4457" opacity="1.000000" stroke="none" 
	d="
M1172.193115,1276.111816 
	C1172.035278,1323.246094 1171.877563,1370.380371 1171.709961,1418.393555 
	C1151.093384,1418.708008 1130.347656,1419.448242 1109.912231,1417.273315 
	C1079.176270,1414.002075 1048.419434,1409.909546 1018.096008,1403.991211 
	C956.053711,1391.882446 896.573792,1371.751221 839.590820,1344.085449 
	C788.728210,1319.391113 741.010803,1289.887817 696.847351,1254.618530 
	C671.582275,1234.441650 647.357117,1213.079468 625.095520,1189.612061 
	C583.199463,1145.446655 546.934509,1097.087036 517.039673,1043.969116 
	C487.620422,991.696106 465.577209,936.474243 450.789978,878.417297 
	C442.486725,845.817444 436.952820,812.697998 433.475708,779.159607 
	C430.168945,747.264404 429.116638,715.316895 430.488251,683.422852 
	C434.010651,601.516846 451.433105,522.584961 483.362335,446.888855 
	C507.210510,390.350952 538.290283,338.130829 575.808777,289.731934 
	C617.265320,236.253052 665.562134,189.806351 720.124756,149.688141 
	C771.157654,112.165268 826.048767,81.694534 884.656555,58.023182 
	C939.181091,36.001026 995.485901,19.972218 1053.829590,11.709205 
	C1069.963257,9.424249 1086.180908,7.734838 1102.341797,5.632389 
	C1104.175171,5.393876 1105.890259,4.245708 1107.830078,2.759671 
	C1130.041748,2.000000 1152.083618,2.000000 1175.062744,2.000000 
	C1175.892334,29.810163 1175.753784,57.620255 1175.687500,85.430511 
	C1175.640869,104.967438 1175.692383,124.504601 1174.935181,145.212067 
	C1169.891724,146.834595 1165.607544,147.726074 1161.335938,147.669052 
	C1128.268311,147.227676 1095.572266,151.176071 1063.157837,156.952133 
	C1007.525696,166.865463 954.100708,183.920883 903.102051,208.490112 
	C831.166687,243.145782 768.309387,289.798950 715.081665,349.402191 
	C666.606079,403.684143 629.910461,464.928497 605.698730,533.589233 
	C604.060242,538.235718 603.133789,543.133240 601.609375,548.075073 
	C601.352173,548.682434 601.361877,549.128662 601.371521,549.574951 
	C601.607239,549.076355 601.843018,548.577698 602.671082,547.761108 
	C605.417480,544.490112 607.637207,541.582581 609.715454,538.577209 
	C632.901611,505.047546 661.549377,476.919525 695.518860,454.595001 
	C766.667603,407.836456 845.063538,391.432404 928.996643,402.618103 
	C990.424072,410.804474 1045.287476,435.329437 1093.270386,474.674103 
	C1111.562256,489.673035 1128.518433,506.099457 1142.080811,526.446960 
	C1136.753540,556.580750 1131.654785,585.893860 1126.185669,615.137695 
	C1125.438599,619.133179 1122.843750,622.783081 1120.724609,626.016846 
	C1105.637207,590.488708 1084.641357,559.857117 1055.976440,534.995911 
	C992.301941,479.770905 918.125977,460.274933 835.521484,473.397491 
	C780.271057,482.174591 732.527893,506.866058 693.436584,547.229980 
	C639.924011,602.484497 617.405518,668.642151 628.072510,744.732422 
	C638.091187,816.198242 675.957275,871.107971 735.580505,910.590576 
	C787.068481,944.685852 844.222473,958.121704 905.862671,952.333069 
	C961.660950,947.093018 1010.968018,926.652100 1053.438843,890.033691 
	C1061.750610,882.867249 1069.566162,875.125122 1078.046875,868.340759 
	C1078.816528,872.596924 1079.861450,876.265869 1079.354248,879.705872 
	C1077.613159,891.516174 1075.017334,903.201721 1073.323730,915.017395 
	C1070.788208,932.705444 1065.229614,949.988098 1065.589966,968.615723 
	C1004.013733,1009.141479 936.582275,1027.672729 864.023682,1023.381897 
	C754.308960,1016.893677 667.477783,967.356750 602.928955,875.808777 
	C602.928955,879.200317 602.682434,880.222107 602.964417,881.067566 
	C614.068359,914.365784 628.383362,946.281982 645.813660,976.694702 
	C676.529053,1030.287476 715.096558,1077.546143 761.160583,1118.824097 
	C797.099915,1151.029175 836.289429,1178.403809 878.725281,1201.220093 
	C931.622070,1229.660767 987.583862,1249.795044 1046.366089,1261.886597 
	C1082.945190,1269.411011 1119.893677,1274.239258 1157.353271,1274.351440 
	C1162.301636,1274.366333 1167.246582,1275.497559 1172.193115,1276.111816 
M600.915955,873.032593 
	C600.915955,873.032593 601.046204,872.969971 600.915955,873.032593 
z"/>
<path fill="#0E4356" opacity="1.000000" stroke="none" 
	d="
M1162.011963,1667.758545 
	C1187.990234,1667.644531 1212.970581,1667.543091 1237.950317,1667.367920 
	C1238.849976,1667.361694 1239.744751,1666.628296 1242.065430,1665.607422 
	C1242.174194,1630.696533 1242.284546,1595.252075 1242.397705,1558.912476 
	C1259.636963,1556.913208 1275.691040,1557.683960 1291.466431,1558.289917 
	C1294.222900,1566.437988 1294.805176,1807.102295 1292.381836,1818.236206 
	C1285.148682,1820.719604 1254.871338,1821.175171 1243.132690,1818.738281 
	C1242.850220,1815.188110 1242.286987,1811.326172 1242.276367,1807.462646 
	C1242.199341,1779.479126 1242.255737,1751.495117 1242.208496,1723.511353 
	C1242.201904,1719.584595 1241.861572,1715.658447 1241.690430,1712.041992 
	C1233.640625,1709.268555 1144.884033,1708.701294 1132.682739,1711.320679 
	C1132.390137,1714.840820 1131.803589,1718.690308 1131.792603,1722.541382 
	C1131.712524,1750.525024 1131.770752,1778.508911 1131.721924,1806.492798 
	C1131.715088,1810.417114 1131.362549,1814.340820 1131.124634,1819.192505 
	C1114.752563,1820.986206 1099.082886,1820.528931 1083.661865,1819.525635 
	C1081.076050,1809.902588 1081.053589,1568.278198 1083.616821,1558.576782 
	C1098.799805,1557.078979 1114.248291,1557.768677 1130.659424,1558.106689 
	C1131.072754,1562.840698 1131.690186,1566.699341 1131.701904,1570.559814 
	C1131.786255,1598.543335 1131.720093,1626.527466 1131.781372,1654.510986 
	C1131.789917,1658.397949 1132.235474,1662.283813 1132.554443,1667.380737 
	C1142.584595,1667.514038 1151.799194,1667.636597 1162.011963,1667.758545 
z"/>
<path fill="#0E4356" opacity="1.000000" stroke="none" 
	d="
M1801.366455,1632.651855 
	C1823.233032,1694.820679 1845.337158,1756.080200 1866.576538,1818.408813 
	C1863.408936,1819.228882 1861.591675,1820.089844 1859.765381,1820.109131 
	C1847.445557,1820.239380 1835.121704,1820.059692 1822.803833,1820.263306 
	C1817.574829,1820.349731 1815.086548,1817.902954 1813.501709,1813.173584 
	C1809.377563,1800.866455 1804.942383,1788.662476 1800.549683,1776.446777 
	C1797.707153,1768.542480 1797.569214,1768.323486 1789.100342,1768.295166 
	C1761.460693,1768.202759 1733.819092,1768.398315 1706.181152,1768.158325 
	C1699.862305,1768.103394 1696.461304,1770.363892 1694.503174,1776.394165 
	C1690.598145,1788.419678 1685.917114,1800.192627 1681.989258,1812.211426 
	C1680.027466,1818.214478 1676.655151,1820.607056 1670.301514,1820.350342 
	C1659.994995,1819.933960 1649.658325,1820.307739 1639.336304,1820.190796 
	C1636.481079,1820.158569 1633.632202,1819.571167 1629.562012,1819.096558 
	C1630.957397,1813.984863 1631.817749,1809.855713 1633.202026,1805.910156 
	C1653.147583,1749.059692 1673.164307,1692.234131 1693.162842,1635.402222 
	C1701.007568,1613.108765 1708.845093,1590.812622 1716.694458,1568.520508 
	C1720.446045,1557.866089 1720.454712,1557.825806 1731.482056,1557.774170 
	C1742.804199,1557.721191 1754.127441,1557.701538 1765.449219,1557.786011 
	C1774.774536,1557.855469 1775.014160,1557.846313 1778.261353,1566.910889 
	C1786.006836,1588.531616 1793.502808,1610.241821 1801.366455,1632.651855 
M1718.345337,1703.453247 
	C1716.186890,1710.317993 1714.028320,1717.182739 1711.878052,1724.021362 
	C1722.051392,1727.214844 1775.275024,1726.973999 1783.723633,1723.690796 
	C1772.230225,1689.645630 1760.721191,1655.553955 1749.212158,1621.462280 
	C1748.369873,1621.466553 1747.527466,1621.470825 1746.685181,1621.474976 
	C1736.820068,1648.088135 1728.083984,1675.110596 1718.345337,1703.453247 
z"/>
<path fill="#0E4356" opacity="1.000000" stroke="none" 
	d="
M317.813293,1587.768066 
	C320.745056,1579.495728 323.479797,1571.986938 326.033997,1564.416992 
	C327.453766,1560.209229 329.679871,1557.690918 334.609222,1557.756836 
	C348.595642,1557.943970 362.589050,1557.979980 376.573853,1557.736938 
	C382.714905,1557.630493 384.308990,1561.600830 385.916779,1566.207031 
	C394.035675,1589.466919 402.248260,1612.694336 410.426697,1635.933472 
	C430.431396,1692.776733 450.442047,1749.617798 470.423798,1806.469116 
	C471.719543,1810.155884 472.790070,1813.921875 474.266724,1818.607056 
	C470.856659,1819.271484 468.418213,1820.126465 465.968933,1820.158691 
	C454.646179,1820.307861 443.313690,1819.995361 431.998535,1820.325195 
	C426.004822,1820.499878 422.973663,1818.096558 421.164276,1812.469727 
	C417.497009,1801.064453 413.332947,1789.816650 409.262848,1778.543945 
	C405.583923,1768.354370 405.519073,1768.288452 395.146118,1768.268799 
	C368.166748,1768.217529 341.187103,1768.208252 314.207825,1768.277954 
	C305.231049,1768.301147 305.204987,1768.424683 302.180878,1776.945801 
	C298.060760,1788.554810 294.012451,1800.189453 289.882446,1811.794922 
	C287.033722,1819.799927 286.769348,1820.094360 278.572052,1820.200562 
	C267.915375,1820.338745 257.254761,1820.295166 246.597473,1820.179810 
	C244.031265,1820.152100 241.471451,1819.533936 237.746216,1819.030151 
	C238.663605,1814.863892 239.075027,1811.303955 240.230316,1808.004639 
	C255.414139,1764.642212 270.696136,1721.314087 285.967743,1677.982422 
	C296.480743,1648.152832 307.015717,1618.331299 317.813293,1587.768066 
M372.888245,1668.069214 
	C370.127289,1660.213135 367.421844,1652.337036 364.589874,1644.506592 
	C361.718414,1636.567261 360.108765,1628.108643 355.357941,1620.208740 
	C354.399200,1621.791382 353.723602,1622.564331 353.416443,1623.463257 
	C342.751221,1654.664551 332.092560,1685.868286 321.541718,1717.108398 
	C320.745758,1719.465332 320.751404,1722.093018 320.397644,1724.504639 
	C330.129822,1726.942383 382.433502,1726.848877 390.628998,1724.554321 
	C390.673401,1723.637085 391.008209,1722.572510 390.724884,1721.711182 
	C384.999756,1704.312378 379.203552,1686.936890 372.888245,1668.069214 
z"/>
<path fill="#0E4356" opacity="1.000000" stroke="none" 
	d="
M893.890137,1820.249023 
	C883.320496,1820.249390 873.733276,1820.249390 864.615417,1820.249390 
	C861.766479,1811.607300 861.212708,1570.854004 863.825745,1558.772095 
	C866.621094,1558.461548 869.787537,1557.797974 872.952209,1557.806763 
	C903.254150,1557.890259 933.569458,1557.588257 963.853149,1558.415527 
	C986.653809,1559.038452 1008.020508,1565.307129 1025.412598,1580.957031 
	C1049.277466,1602.431152 1056.232666,1639.772705 1042.760742,1670.104614 
	C1029.909302,1699.039551 1005.941406,1712.229736 976.168091,1715.863770 
	C960.061401,1717.829712 943.640076,1717.240356 927.358704,1717.738770 
	C923.084412,1717.869751 918.802734,1717.758423 913.374146,1717.758423 
	C912.944702,1722.540405 912.318787,1726.354980 912.305298,1730.171631 
	C912.215881,1755.482422 912.257751,1780.793457 912.257019,1806.104492 
	C912.256897,1810.055298 912.256958,1814.006104 912.256958,1817.452393 
	C906.186890,1821.757935 900.340210,1819.653687 893.890137,1820.249023 
M976.586182,1672.203247 
	C984.067627,1669.485352 989.988708,1664.842041 993.811401,1657.806030 
	C1007.511536,1632.588989 993.602722,1603.797241 965.330872,1600.830566 
	C949.854248,1599.206543 934.079956,1600.410156 918.439880,1600.359619 
	C914.332214,1600.346436 912.374268,1602.517578 912.350403,1606.558350 
	C912.346497,1607.223633 912.283386,1607.888794 912.283264,1608.553955 
	C912.279541,1628.192993 912.290588,1647.832153 912.272339,1667.471191 
	C912.268311,1671.797363 912.806396,1675.764771 918.457031,1675.630249 
	C937.351440,1675.180786 956.411133,1677.836304 976.586182,1672.203247 
z"/>
<path fill="#0E4356" opacity="1.000000" stroke="none" 
	d="
M674.916992,1558.060059 
	C723.089355,1557.916748 770.361206,1557.916748 818.270081,1557.916748 
	C818.856262,1561.284546 819.612366,1563.797974 819.673828,1566.328247 
	C819.851990,1573.656372 819.804016,1580.991577 819.747437,1588.323364 
	C819.661865,1599.410767 819.453918,1599.680542 808.675293,1599.723389 
	C790.011475,1599.797485 771.347229,1599.745605 752.683167,1599.747070 
	C745.684143,1599.747681 738.684021,1599.678467 731.686523,1599.781616 
	C728.442993,1599.829468 725.204529,1600.213257 720.558533,1600.545044 
	C720.038208,1622.343750 720.174622,1643.418335 720.473816,1665.936279 
	C749.897278,1666.675537 778.064636,1665.880981 807.101135,1666.436157 
	C808.985840,1680.493530 808.566650,1693.501709 807.412048,1707.399292 
	C802.809021,1707.711670 798.924255,1708.189453 795.037842,1708.203369 
	C773.707703,1708.280151 752.377014,1708.188965 731.046875,1708.268433 
	C720.719910,1708.306885 720.339294,1708.698364 720.283936,1718.953003 
	C720.197510,1734.950317 720.218018,1750.948730 720.296387,1766.946167 
	C720.312195,1770.180054 720.786987,1773.411743 721.116638,1777.459473 
	C725.726685,1777.744385 729.613586,1778.182495 733.501587,1778.192749 
	C757.831421,1778.256958 782.161438,1778.219727 806.491394,1778.234741 
	C809.155518,1778.236328 811.823059,1778.289307 814.482605,1778.435303 
	C817.613953,1778.607178 819.511780,1780.324341 819.534424,1783.473511 
	C819.617676,1795.057129 819.567444,1806.641846 819.567444,1817.806763 
	C811.359863,1820.688477 684.122192,1821.383057 671.148621,1818.782837 
	C670.864563,1815.571411 670.281982,1812.041382 670.279663,1808.511230 
	C670.228027,1728.855591 670.212769,1649.200073 670.320374,1569.544556 
	C670.325806,1565.553955 668.520447,1560.572632 674.916992,1558.060059 
z"/>
<path fill="#0E4356" opacity="1.000000" stroke="none" 
	d="
M2001.774658,1763.942749 
	C2006.142334,1765.161499 2005.538452,1761.551514 2006.242432,1759.544678 
	C2014.951660,1734.718750 2023.519653,1709.843262 2032.145020,1684.987793 
	C2045.681885,1645.978882 2059.222656,1606.971436 2072.802979,1567.977661 
	C2073.886475,1564.866699 2075.290527,1561.867432 2076.687500,1558.471680 
	C2092.890869,1558.471680 2108.734375,1558.471680 2126.210449,1558.471680 
	C2124.481445,1564.428345 2123.347656,1569.462158 2121.576660,1574.260864 
	C2104.051025,1621.747803 2086.410400,1669.192017 2068.822021,1716.655762 
	C2057.365967,1747.570435 2045.972656,1778.508301 2034.488403,1809.412354 
	C2030.477905,1820.204102 2030.391846,1820.197510 2018.661987,1820.239014 
	C2008.334106,1820.275513 1998.005981,1820.271484 1987.678101,1820.240356 
	C1975.793823,1820.204468 1975.736450,1820.204224 1971.445312,1808.642578 
	C1957.540039,1771.177002 1943.694092,1733.689453 1929.800415,1696.219604 
	C1914.287476,1654.382935 1898.725952,1612.564209 1883.255737,1570.711670 
	C1881.923950,1567.109009 1881.118164,1563.311768 1879.762939,1558.527954 
	C1884.359253,1558.198730 1887.595581,1557.800171 1890.835815,1557.766724 
	C1899.830200,1557.673828 1908.826050,1557.713257 1917.821411,1557.736450 
	C1930.270508,1557.768555 1930.382202,1557.742676 1934.702881,1569.821533 
	C1938.740479,1581.109253 1942.483887,1592.501831 1946.395630,1603.834839 
	C1964.757935,1657.032837 1983.133911,1710.226196 2001.774658,1763.942749 
z"/>
<path fill="#0E4457" opacity="1.000000" stroke="none" 
	d="
M1530.000000,1557.771118 
	C1555.318481,1557.891724 1579.637085,1558.000610 1603.955078,1558.181763 
	C1604.852783,1558.188477 1605.745239,1558.904297 1607.414185,1559.623047 
	C1607.414185,1572.244629 1607.414185,1585.065186 1607.414185,1599.137939 
	C1603.885376,1599.508423 1600.405640,1600.162720 1596.921143,1600.189697 
	C1581.594238,1600.308228 1566.265625,1600.180786 1550.938354,1600.271973 
	C1540.713379,1600.332886 1540.286499,1600.721558 1540.279053,1611.057373 
	C1540.232422,1675.700562 1540.267700,1740.343750 1540.220337,1804.986938 
	C1540.217041,1809.543701 1539.768433,1814.100342 1539.486694,1819.412109 
	C1523.124023,1819.412109 1507.669922,1819.412109 1491.189697,1819.412109 
	C1490.854858,1814.850586 1490.282349,1810.655884 1490.278564,1806.460693 
	C1490.221313,1742.484009 1490.251587,1678.507202 1490.207520,1614.530518 
	C1490.204590,1610.307251 1489.765137,1606.084351 1489.449951,1600.455078 
	C1467.177612,1600.455078 1445.692505,1600.455078 1423.088013,1600.455078 
	C1421.745728,1585.954956 1422.014404,1572.875122 1422.907837,1558.836426 
	C1440.979858,1556.665527 1458.537476,1558.087280 1476.020142,1557.829346 
	C1493.676514,1557.568848 1511.339722,1557.771606 1530.000000,1557.771118 
z"/>
<path fill="#0E4356" opacity="1.000000" stroke="none" 
	d="
M528.085876,1820.248901 
	C521.207886,1820.110596 515.313599,1819.972046 509.820435,1819.842896 
	C507.117462,1810.270752 506.986511,1568.657349 509.576813,1558.597046 
	C524.761353,1557.066528 540.215637,1557.744385 556.748474,1558.188721 
	C557.119995,1563.468018 557.710754,1567.987305 557.715027,1572.506958 
	C557.775513,1636.816772 557.743408,1701.126709 557.786804,1765.436523 
	C557.789673,1769.667725 558.222290,1773.898804 558.531311,1779.518188 
	C586.794250,1779.518188 614.281067,1779.518188 642.824524,1779.518188 
	C644.370667,1793.337280 643.947021,1805.755249 643.109802,1819.626465 
	C623.719604,1820.908081 604.862061,1820.064453 586.048401,1820.214600 
	C567.056519,1820.366089 548.062622,1820.248413 528.085876,1820.248901 
z"/>
<path fill="#0D4153" opacity="1.000000" stroke="none" 
	d="
M1304.257080,1995.845581 
	C1321.319336,2024.433472 1321.907349,2053.159668 1304.845337,2080.495850 
	C1290.026489,2104.238281 1266.613159,2114.121582 1238.797485,2110.988037 
	C1208.712158,2107.599365 1188.038330,2090.916748 1179.595459,2061.913574 
	C1170.975952,2032.303101 1176.401001,2005.029297 1200.017822,1983.390137 
	C1228.124512,1957.637207 1274.685547,1960.823242 1299.461060,1989.828735 
	C1300.971924,1991.597534 1302.408325,1993.429932 1304.257080,1995.845581 
M1299.378906,2055.877441 
	C1301.578491,2045.379272 1302.056396,2034.944580 1299.953857,2024.271484 
	C1295.315186,2000.723267 1277.760620,1983.526001 1254.283691,1980.357178 
	C1232.492798,1977.416016 1208.528931,1986.650146 1197.652588,2010.355347 
	C1191.583374,2023.583496 1190.474121,2037.366821 1192.691650,2051.327637 
	C1198.051025,2085.067627 1227.934937,2104.559326 1261.115234,2096.096924 
	C1281.379639,2090.928711 1293.230469,2077.086426 1299.378906,2055.877441 
z"/>
<path fill="#0E4356" opacity="1.000000" stroke="none" 
	d="
M1356.257568,2036.000610 
	C1356.176636,2060.867432 1356.432861,2084.741699 1356.084961,2109.378418 
	C1350.929077,2109.378418 1347.190186,2109.378418 1343.630859,2109.378418 
	C1341.211914,2100.789062 1340.970337,1979.288086 1343.174683,1969.583496 
	C1353.751953,1966.419922 1355.336670,1966.830078 1361.213745,1975.703369 
	C1382.537109,2007.898071 1403.762329,2040.157837 1425.046631,2072.378418 
	C1427.041504,2075.398193 1429.190674,2078.316162 1431.625488,2081.791260 
	C1434.970459,2078.762207 1433.667969,2075.297363 1433.678223,2072.370605 
	C1433.783813,2042.068970 1433.722778,2011.766724 1433.768066,1981.464722 
	C1433.773926,1977.541260 1434.119507,1973.618286 1434.357666,1968.653076 
	C1438.762451,1968.455933 1442.507568,1968.288208 1446.000732,1968.131836 
	C1448.691895,1976.221558 1449.330933,2096.260254 1447.036377,2108.158447 
	C1436.953247,2111.758789 1434.708862,2111.220703 1428.968506,2102.541748 
	C1408.582886,2071.722168 1388.321411,2040.820435 1368.000732,2009.957764 
	C1364.951904,2005.327148 1361.838013,2000.739380 1357.637817,1996.419189 
	C1355.924561,2009.447021 1356.416992,2022.237671 1356.257568,2036.000610 
z"/>
<path fill="#0D4153" opacity="1.000000" stroke="none" 
	d="
M1508.429688,2041.694336 
	C1503.951538,2040.025513 1500.239746,2038.551270 1496.509033,2037.126953 
	C1471.510010,2027.581787 1468.481934,1992.173340 1490.188843,1975.387573 
	C1505.591431,1963.476562 1541.984131,1960.605957 1558.833252,1981.368042 
	C1563.768555,1987.449341 1565.820435,1991.872681 1566.067261,2000.220825 
	C1554.656982,2003.267944 1553.757080,2002.932617 1547.674316,1993.368896 
	C1538.351440,1978.710693 1513.582153,1975.103149 1499.752686,1985.722412 
	C1489.056519,1993.935791 1488.127075,2016.726562 1502.198975,2023.275879 
	C1509.406860,2026.630493 1517.016479,2029.151367 1524.526123,2031.819214 
	C1531.109863,2034.157959 1537.924683,2035.873535 1544.430786,2038.397217 
	C1558.609985,2043.897095 1567.729248,2053.392822 1568.289795,2069.545898 
	C1568.870361,2086.273193 1561.944702,2098.985352 1547.027954,2106.050293 
	C1527.939575,2115.091309 1508.697998,2113.862061 1490.853760,2102.310303 
	C1480.910400,2095.873291 1475.132202,2086.432129 1475.072021,2074.167725 
	C1486.886719,2070.471924 1488.574097,2070.972168 1492.755127,2081.125488 
	C1501.912231,2103.363281 1535.273071,2101.746338 1546.660400,2089.520020 
	C1553.916870,2081.729004 1555.776367,2068.391113 1549.266479,2060.060303 
	C1545.797363,2055.620850 1540.220459,2052.195312 1534.900635,2049.980957 
	C1526.640991,2046.542847 1517.788452,2044.529419 1508.429688,2041.694336 
z"/>
<path fill="#0D4153" opacity="1.000000" stroke="none" 
	d="
M1090.861572,2059.835938 
	C1085.578857,2053.231934 1079.052002,2050.155762 1071.882324,2048.037842 
	C1062.306274,2045.208984 1052.672974,2042.519043 1043.250488,2039.235474 
	C1024.839233,2032.819458 1017.384705,2022.073242 1017.734619,2003.330933 
	C1018.043823,1986.771362 1027.739502,1974.281860 1044.651489,1968.987183 
	C1058.485352,1964.656128 1072.252197,1965.140625 1085.759155,1970.411621 
	C1098.644653,1975.440186 1107.502686,1987.680542 1107.181396,1999.687500 
	C1096.753540,2003.531494 1095.149048,2003.286865 1089.952759,1993.900146 
	C1079.402100,1974.840820 1050.176392,1977.241455 1039.803223,1987.055420 
	C1028.210449,1998.023071 1030.681641,2016.862183 1045.333984,2024.035278 
	C1053.639771,2028.101440 1062.826782,2030.354492 1071.582031,2033.520508 
	C1078.450684,2036.004395 1085.614624,2037.968262 1092.039917,2041.325684 
	C1111.825928,2051.664795 1116.456055,2077.989990 1102.098999,2095.234619 
	C1091.843628,2107.552979 1078.111694,2111.931152 1062.967529,2111.561035 
	C1048.726074,2111.213379 1035.226807,2107.592285 1025.375732,2095.961914 
	C1020.101379,2089.735107 1016.621094,2082.828125 1016.849609,2074.542236 
	C1027.923828,2070.240967 1030.354004,2070.845215 1034.465088,2081.093262 
	C1043.106323,2102.634277 1077.823853,2103.049561 1089.549072,2087.761230 
	C1096.056274,2079.276611 1095.772217,2069.882324 1090.861572,2059.835938 
z"/>
<path fill="#0E4356" opacity="1.000000" stroke="none" 
	d="
M948.321045,2096.952148 
	C964.277893,2093.186035 972.410461,2083.376709 974.283691,2068.197510 
	C975.014771,2062.273193 975.636841,2056.292725 975.678406,2050.333740 
	C975.838623,2027.354492 975.716431,2004.373535 975.771118,1981.393433 
	C975.780457,1977.473999 976.140686,1973.555420 976.382141,1968.779175 
	C980.845520,1968.779175 984.591675,1968.779175 989.019958,1968.779175 
	C989.442932,1971.509399 990.172546,1974.050659 990.179138,1976.593750 
	C990.253357,2005.235474 990.468506,2033.880737 990.102234,2062.518066 
	C989.921631,2076.635986 985.221191,2089.127930 974.389771,2099.039551 
	C951.382935,2120.092773 897.602966,2115.927246 888.952576,2074.811768 
	C887.184448,2066.407959 886.497559,2057.658203 886.366211,2049.051758 
	C886.015564,2026.076538 886.202515,2003.092773 886.247437,1980.112549 
	C886.272339,1967.366699 887.369751,1966.546021 901.321167,1969.195801 
	C901.611511,1972.750854 902.186829,1976.606323 902.199341,1980.463745 
	C902.282288,2006.108154 902.043396,2031.755737 902.385986,2057.395752 
	C902.473511,2063.946533 903.351135,2070.796143 905.486633,2076.945801 
	C909.991211,2089.917480 920.282837,2096.192383 933.578491,2097.509277 
	C938.169312,2097.963867 942.868958,2097.319580 948.321045,2096.952148 
z"/>
<path fill="#0E4356" opacity="1.000000" stroke="none" 
	d="
M843.930786,1980.239258 
	C831.962097,1980.251709 820.982910,1980.269409 810.003723,1980.272949 
	C806.027283,1980.274292 802.398560,1980.960083 802.421448,1985.981445 
	C802.486633,2000.266724 802.709656,2014.551392 802.928894,2028.835571 
	C802.937622,2029.406494 803.540955,2029.968140 804.439453,2031.526611 
	C807.336243,2031.734863 810.877441,2032.176392 814.422485,2032.210205 
	C825.733459,2032.318115 837.045898,2032.283203 848.357727,2032.285156 
	C852.443787,2032.285767 855.597961,2033.191895 855.574219,2038.286621 
	C855.550354,2043.417114 852.283081,2044.198853 848.260803,2044.205078 
	C836.283508,2044.223755 824.305359,2044.155518 812.329285,2044.283081 
	C802.787292,2044.384766 802.359070,2044.822388 802.289307,2054.647949 
	C802.187805,2068.953613 802.295105,2083.260498 802.230408,2097.566650 
	C802.214172,2101.156250 801.881409,2104.744141 801.639709,2109.376953 
	C797.257935,2109.580078 793.515442,2109.753662 790.027771,2109.915283 
	C787.310364,2101.949219 786.572449,1982.620728 789.026978,1969.118774 
	C791.222778,1968.713379 793.724426,1967.863892 796.230652,1967.850098 
	C816.524902,1967.737671 836.820129,1967.752075 857.114868,1967.809326 
	C860.358032,1967.818481 864.005066,1967.367554 865.324951,1971.668457 
	C866.720093,1976.214844 864.691650,1979.676025 859.883972,1980.039917 
	C854.919495,1980.415771 849.910034,1980.197388 843.930786,1980.239258 
z"/>
<path fill="#0D4153" opacity="1.000000" stroke="none" 
	d="
M1136.204712,2093.801270 
	C1136.250122,2051.711426 1136.100220,2010.586792 1136.303711,1968.646973 
	C1141.799194,1968.646973 1145.873779,1968.646973 1149.778076,1968.646973 
	C1152.630615,1977.855957 1152.547485,2100.755859 1149.821289,2109.067139 
	C1148.957397,2109.370361 1148.045166,2109.904053 1147.091797,2109.992188 
	C1137.745117,2110.853271 1136.562866,2109.837402 1136.227661,2100.752686 
	C1136.154175,2098.760742 1136.208862,2096.763672 1136.204712,2093.801270 
z"/>
<path fill="#000000" opacity="1.000000" stroke="none" 
	d="
M1173.056641,1275.978760 
	C1167.246582,1275.497559 1162.301636,1274.366333 1157.353271,1274.351440 
	C1119.893677,1274.239258 1082.945190,1269.411011 1046.366089,1261.886597 
	C987.583862,1249.795044 931.622070,1229.660767 878.725281,1201.220093 
	C836.289429,1178.403809 797.099915,1151.029175 761.160583,1118.824097 
	C715.096558,1077.546143 676.529053,1030.287476 645.813660,976.694702 
	C628.383362,946.281982 614.068359,914.365784 602.964417,881.067566 
	C602.682434,880.222107 602.928955,879.200317 602.928955,875.808777 
	C667.477783,967.356750 754.308960,1016.893677 864.023682,1023.381897 
	C936.582275,1027.672729 1004.013733,1009.141479 1066.227051,968.364075 
	C1075.020386,961.833557 1082.709717,956.036743 1090.972656,949.930237 
	C1095.737183,945.957520 1099.927979,942.294434 1104.694336,938.255188 
	C1111.649780,931.363953 1118.029663,924.848938 1124.974854,917.982910 
	C1132.408203,909.116455 1139.276489,900.600952 1146.661011,891.662109 
	C1154.811035,878.896545 1162.444702,866.554199 1170.504761,853.822388 
	C1171.256348,852.742432 1171.581665,852.052124 1172.669434,851.301514 
	C1175.487793,853.648132 1177.788208,855.890076 1179.547729,858.496887 
	C1183.021362,863.643372 1186.195557,868.991821 1189.726318,874.910889 
	C1193.944580,881.057678 1197.930420,886.550354 1202.131836,892.686523 
	C1206.914307,898.837158 1211.481079,904.344299 1216.350952,910.445435 
	C1220.354858,914.852905 1224.055908,918.666443 1227.756836,922.479980 
	C1248.308838,946.118835 1273.245483,964.329224 1300.213379,979.734009 
	C1342.951538,1004.147339 1388.865479,1018.524963 1438.103760,1022.410645 
	C1523.545410,1029.153198 1600.799805,1007.540527 1669.427979,956.134094 
	C1699.518066,933.594910 1724.695312,906.290771 1744.869263,874.473755 
	C1746.727539,871.543030 1748.707397,868.689453 1752.046509,866.519653 
	C1751.733154,868.407227 1751.744019,870.422668 1751.057495,872.163025 
	C1741.918091,895.333252 1733.571777,918.869507 1723.284302,941.522888 
	C1700.973999,990.651245 1670.410400,1034.565186 1634.502319,1074.640015 
	C1593.367065,1120.548828 1545.828247,1158.808716 1492.595093,1189.939453 
	C1457.475098,1210.477539 1420.692627,1227.459473 1382.225708,1240.670044 
	C1346.025757,1253.102173 1309.007568,1262.366455 1271.094604,1267.886108 
	C1245.116089,1271.668457 1219.068115,1274.511230 1192.754150,1274.421509 
	C1186.477783,1274.400146 1180.198242,1275.345337 1173.056641,1275.978760 
z"/>
<path fill="#010100" opacity="1.000000" stroke="none" 
	d="
M1142.192505,525.604431 
	C1128.518433,506.099457 1111.562256,489.673035 1093.270386,474.674103 
	C1045.287476,435.329437 990.424072,410.804474 928.996643,402.618103 
	C845.063538,391.432404 766.667603,407.836456 695.518860,454.595001 
	C661.549377,476.919525 632.901611,505.047546 609.715454,538.577209 
	C607.637207,541.582581 605.417480,544.490112 602.621338,547.718689 
	C601.979309,547.994324 601.876221,547.914001 601.876221,547.914001 
	C603.133789,543.133240 604.060242,538.235718 605.698730,533.589233 
	C629.910461,464.928497 666.606079,403.684143 715.081665,349.402191 
	C768.309387,289.798950 831.166687,243.145782 903.102051,208.490112 
	C954.100708,183.920883 1007.525696,166.865463 1063.157837,156.952133 
	C1095.572266,151.176071 1128.268311,147.227676 1161.335938,147.669052 
	C1165.607544,147.726074 1169.891724,146.834595 1174.951782,146.143219 
	C1196.929443,147.254059 1218.188965,147.973022 1239.307373,150.095505 
	C1275.038330,153.686646 1310.297241,160.142426 1344.934326,169.840515 
	C1419.740356,190.785568 1488.365356,224.117584 1550.618042,270.777130 
	C1614.077515,318.341339 1665.458618,376.471893 1705.094238,445.005524 
	C1723.789429,477.331177 1738.627808,511.463715 1750.254272,546.964478 
	C1751.282959,550.106079 1751.826538,553.406616 1752.292236,557.327942 
	C1751.988892,558.022644 1752.088623,557.913147 1752.088623,557.913086 
	C1745.180664,548.257812 1738.562988,538.378662 1731.318115,528.983154 
	C1680.437744,462.999634 1613.914185,422.289215 1532.361206,405.535095 
	C1500.428467,398.974854 1468.190918,397.702332 1436.053955,400.618530 
	C1365.881470,406.986145 1303.396240,432.781464 1249.744019,478.906403 
	C1241.685547,485.834351 1234.342407,493.594513 1225.758789,501.820526 
	C1221.163208,506.996918 1217.476929,511.322449 1213.228760,516.016968 
	C1209.006348,521.415344 1205.345703,526.444763 1201.097900,531.816772 
	C1197.514648,536.712341 1194.518555,541.265259 1191.013672,546.243774 
	C1187.229492,552.197937 1183.954224,557.726318 1180.288574,563.732910 
	C1178.559814,566.769592 1177.221436,569.328064 1175.201660,571.860840 
	C1172.614014,570.020752 1170.707642,568.206482 1168.630615,565.780518 
	C1165.002075,559.392334 1161.544312,553.615967 1157.851074,547.202698 
	C1152.474487,539.578674 1147.333496,532.591553 1142.192505,525.604431 
M1162.310181,201.362045 
	C1162.487915,266.659149 1162.664917,331.956268 1162.864746,397.253357 
	C1162.865601,397.526489 1163.168823,397.817749 1163.372681,398.066040 
	C1163.582886,398.321930 1163.844482,398.535675 1164.230469,398.910645 
	C1171.878418,398.910645 1179.676147,398.910645 1187.735107,398.910645 
	C1187.735107,328.994080 1187.735107,259.849030 1187.735107,190.226532 
	C1179.303589,190.226532 1171.494019,190.226532 1162.970337,190.226532 
	C1162.725952,193.647034 1162.518433,196.548996 1162.310181,201.362045 
M1279.592651,270.416656 
	C1268.338867,295.229340 1257.071167,320.035767 1245.839111,344.858246 
	C1242.107544,353.104645 1242.812622,355.010162 1250.699463,358.695923 
	C1266.619141,366.135742 1266.430298,366.051361 1273.730957,349.709930 
	C1288.498779,316.654358 1303.279663,283.601379 1318.475220,250.741547 
	C1327.421997,231.394531 1324.999512,234.182846 1307.764648,226.523972 
	C1302.390015,224.135559 1300.191528,225.458481 1297.623779,230.958817 
	C1291.720947,243.603683 1285.990845,256.329224 1279.592651,270.416656 
M1056.173340,322.886292 
	C1063.231567,334.528107 1070.288208,346.170990 1077.348633,357.811432 
	C1085.212158,370.775940 1085.232666,370.780121 1097.840210,363.268616 
	C1108.079834,357.167969 1108.322266,356.406036 1102.333862,346.435394 
	C1083.530884,315.128906 1064.689087,283.845795 1045.864624,252.552200 
	C1043.125854,247.999359 1040.362427,243.460709 1037.680298,238.874634 
	C1035.865112,235.770981 1032.858887,234.637268 1030.042969,236.136551 
	C1023.743774,239.490448 1016.622009,241.913300 1011.989746,249.171204 
	C1026.505127,273.293762 1041.028809,297.430206 1056.173340,322.886292 
z"/>
<path fill="#010100" opacity="1.000000" stroke="none" 
	d="
M1230.397583,614.229126 
	C1232.224731,612.069519 1234.506470,610.153687 1235.812988,607.715210 
	C1278.223511,528.557251 1344.776367,484.171753 1432.984009,471.791901 
	C1480.376465,465.140411 1526.689697,470.887177 1570.620361,490.136993 
	C1646.208496,523.258667 1697.518433,578.546082 1716.409912,659.800476 
	C1733.780396,734.512817 1716.436646,802.505005 1667.609131,861.546936 
	C1628.166504,909.240540 1576.737183,938.137390 1516.120728,949.180847 
	C1446.143311,961.929688 1380.470825,949.133362 1320.648804,910.114746 
	C1289.007690,889.476929 1263.260254,862.780151 1244.108765,830.010315 
	C1240.116577,823.179443 1236.352417,816.215332 1232.218994,807.916138 
	C1227.950806,796.339966 1223.946655,786.160339 1219.968994,775.184937 
	C1210.072876,737.837158 1208.690186,701.013794 1216.275635,663.856445 
	C1217.327271,658.704529 1217.615234,653.396667 1218.902222,647.834229 
	C1223.091675,638.364624 1226.727173,629.255310 1230.098145,620.049133 
	C1230.736450,618.306274 1230.324829,616.179016 1230.397583,614.229126 
M1518.774170,695.736877 
	C1525.531616,687.712585 1530.543701,678.703064 1532.624146,668.412720 
	C1534.791260,657.693298 1536.467773,646.863892 1538.010742,636.033020 
	C1539.113281,628.292664 1539.641479,620.470581 1540.482422,612.123291 
	C1529.028198,612.123291 1518.837769,612.123291 1508.130859,612.123291 
	C1507.288818,618.334900 1506.576782,624.208740 1505.682373,630.054688 
	C1503.827393,642.179749 1502.163574,654.344849 1499.868164,666.388062 
	C1498.167114,675.314026 1492.471802,681.611267 1484.138062,686.787842 
	C1481.181152,682.754395 1478.438232,679.077942 1475.763062,675.352722 
	C1461.782227,655.883362 1447.856079,636.374451 1433.792847,616.964844 
	C1432.334106,614.951660 1430.150757,612.099304 1428.209839,612.023010 
	C1416.454346,611.561157 1404.671387,611.793091 1391.232056,611.793091 
	C1404.938599,631.257141 1417.470947,649.053711 1430.313843,667.291321 
	C1410.455811,678.852783 1401.540283,696.524963 1398.236206,717.483765 
	C1396.427734,728.955322 1395.279175,740.532593 1393.912231,752.071594 
	C1392.713379,762.192139 1391.624756,772.325806 1390.431030,782.957153 
	C1401.655396,782.957153 1412.089722,782.957153 1423.175537,782.957153 
	C1424.744385,769.839966 1425.999512,757.333740 1427.794434,744.905396 
	C1429.592651,732.454895 1431.364258,719.948547 1434.249756,707.726929 
	C1435.902222,700.728455 1440.036865,694.506775 1447.973145,691.590942 
	C1459.011475,707.189148 1469.760742,722.374573 1480.505249,737.563416 
	C1491.267944,752.778259 1502.025635,767.996704 1512.666382,783.045044 
	C1525.236572,783.045044 1537.382202,783.045044 1551.745605,783.045044 
	C1534.119995,757.988770 1517.493408,734.352539 1500.931519,710.808228 
	C1507.082520,705.679138 1512.427124,701.222534 1518.774170,695.736877 
z"/>
<path fill="#BD8D14" opacity="1.000000" stroke="none" 
	d="
M1229.938843,613.515381 
	C1230.324829,616.179016 1230.736450,618.306274 1230.098145,620.049133 
	C1226.727173,629.255310 1223.091675,638.364624 1218.468262,647.113892 
	C1216.921021,642.468994 1216.061035,638.219116 1216.047241,633.966431 
	C1215.936401,599.738892 1216.077026,565.510254 1215.886597,531.283386 
	C1215.857544,526.067871 1214.521851,520.859558 1213.790527,515.647949 
	C1217.476929,511.322449 1221.163208,506.996918 1225.459106,502.421204 
	C1226.699341,507.728607 1227.835693,513.282654 1227.874756,518.844421 
	C1228.065186,545.944397 1227.897217,573.046814 1228.030640,600.147522 
	C1228.051392,604.367859 1228.974365,608.583740 1229.938843,613.515381 
z"/>
<path fill="#BD8D14" opacity="1.000000" stroke="none" 
	d="
M1219.942627,775.980713 
	C1223.946655,786.160339 1227.950806,796.339966 1231.949463,807.249512 
	C1227.050903,810.529602 1228.010986,815.197754 1228.000610,819.367981 
	C1227.932495,846.811890 1227.970459,874.256042 1227.955933,901.700073 
	C1227.952637,907.982056 1227.879639,914.264038 1227.797852,921.513000 
	C1224.055908,918.666443 1220.354858,914.852905 1216.349121,909.518188 
	C1216.024658,891.059814 1215.994629,874.122742 1215.987915,857.185608 
	C1215.978760,833.938354 1215.948975,810.691040 1216.023438,787.444031 
	C1216.036865,783.257507 1215.051025,778.569031 1219.942627,775.980713 
z"/>
<path fill="#010100" opacity="1.000000" stroke="none" 
	d="
M1751.945557,558.082764 
	C1752.443359,558.537170 1753.013306,558.900696 1753.496460,559.356323 
	C1753.575439,559.430786 1753.271240,559.911560 1753.144043,560.204529 
	C1752.765869,559.752502 1752.387695,559.300537 1752.049072,558.380859 
	C1752.088623,557.913147 1751.988892,558.022644 1751.945557,558.082764 
z"/>
<path fill="#000000" opacity="1.000000" stroke="none" 
	d="
M1752.696289,863.325012 
	C1752.481689,863.069946 1753.184204,862.870728 1753.184204,862.870728 
	C1753.184204,862.870728 1752.911011,863.580078 1752.696289,863.325012 
z"/>
<path fill="#000000" opacity="1.000000" stroke="none" 
	d="
M1077.610596,867.648560 
	C1069.566162,875.125122 1061.750610,882.867249 1053.438843,890.033691 
	C1010.968018,926.652100 961.660950,947.093018 905.862671,952.333069 
	C844.222473,958.121704 787.068481,944.685852 735.580505,910.590576 
	C675.957275,871.107971 638.091187,816.198242 628.072510,744.732422 
	C617.405518,668.642151 639.924011,602.484497 693.436584,547.229980 
	C732.527893,506.866058 780.271057,482.174591 835.521484,473.397491 
	C918.125977,460.274933 992.301941,479.770905 1055.976440,534.995911 
	C1084.641357,559.857117 1105.637207,590.488708 1120.921631,626.750244 
	C1125.047852,640.046265 1128.597046,652.032654 1132.168945,664.839783 
	C1132.880737,669.913208 1133.875244,674.142578 1134.201904,678.422974 
	C1135.209351,691.628906 1135.961914,704.854309 1136.687988,718.977417 
	C1135.921143,727.077698 1135.800537,734.366394 1134.528442,741.448181 
	C1131.974487,755.667236 1128.791748,769.773315 1125.443848,784.493347 
	C1117.137451,801.956909 1109.255493,818.853088 1100.869629,836.169922 
	C1092.780762,846.943176 1085.195679,857.295837 1077.610596,867.648560 
M929.221741,664.511902 
	C930.228027,676.093201 931.865234,687.661438 932.105774,699.258606 
	C932.568298,721.565674 932.238220,743.889038 932.241333,766.205688 
	C932.241760,769.536438 932.112610,772.876465 932.311890,776.196045 
	C932.702087,782.694763 933.423889,783.423828 940.142456,783.720093 
	C944.796875,783.925232 949.468933,783.862061 954.129761,783.763489 
	C963.520386,783.564880 964.165344,783.010376 964.196899,773.306335 
	C964.283569,746.659912 964.668274,720.002625 964.038391,693.370850 
	C963.741455,680.815857 962.561157,668.036011 959.713623,655.840820 
	C954.557251,633.758118 939.603333,620.220520 917.859375,614.694336 
	C908.558960,612.330627 898.885132,610.657166 889.316528,610.272339 
	C859.039734,609.054688 828.741272,609.122192 798.556702,612.422791 
	C795.088501,612.802063 791.726440,614.151978 788.507507,615.001099 
	C787.407715,624.117371 787.982117,631.860535 791.506653,639.318726 
	C801.971741,640.663330 812.141052,635.471191 822.658752,639.261902 
	C823.016052,641.337769 823.630981,643.258850 823.634949,645.181213 
	C823.700989,676.823669 823.910583,708.468628 823.586426,740.107849 
	C823.459351,752.508301 817.954895,757.388062 805.463440,757.663452 
	C801.504211,757.750793 797.531982,757.036682 793.559021,756.804810 
	C791.332092,756.674866 789.091309,756.781372 786.093994,756.781372 
	C784.757263,762.247620 783.422668,767.348694 782.279175,772.492249 
	C781.340210,776.715881 782.838440,779.555481 787.248108,780.750183 
	C803.324158,785.105652 819.442139,786.336914 835.372131,780.507446 
	C845.860107,776.669434 852.478882,769.089111 853.897217,757.755432 
	C854.803833,750.511230 855.623596,743.200806 855.674194,735.914490 
	C855.875305,706.937500 855.723083,677.958252 855.802734,648.980164 
	C855.813293,645.140320 856.405518,641.302063 856.700256,637.797607 
	C871.151672,634.739807 892.982056,636.175720 905.968872,640.883240 
	C916.833008,644.821350 925.050720,651.577393 929.221741,664.511902 
z"/>
<path fill="#244D4E" opacity="1.000000" stroke="none" 
	d="
M1078.046875,868.340698 
	C1085.195679,857.295837 1092.780762,846.943176 1101.478271,836.474976 
	C1106.683105,839.680481 1104.202393,843.918396 1103.677246,847.514343 
	C1101.852539,860.009216 1099.421387,872.414734 1097.269531,884.862732 
	C1093.985596,903.860291 1090.776978,922.870972 1087.450073,941.860962 
	C1086.844604,945.317932 1086.274658,948.546936 1090.399048,950.239929 
	C1082.709717,956.036743 1075.020386,961.833557 1066.694092,967.882080 
	C1065.229614,949.988098 1070.788208,932.705444 1073.323730,915.017395 
	C1075.017334,903.201721 1077.613159,891.516174 1079.354248,879.705872 
	C1079.861450,876.265869 1078.816528,872.596924 1078.046875,868.340698 
z"/>
<path fill="#244D4E" opacity="1.000000" stroke="none" 
	d="
M1132.146240,664.019104 
	C1128.597046,652.032654 1125.047852,640.046265 1121.301514,627.326416 
	C1122.843750,622.783081 1125.438599,619.133179 1126.185669,615.137695 
	C1131.654785,585.893860 1136.753540,556.580750 1142.080811,526.446960 
	C1147.333496,532.591553 1152.474487,539.578674 1157.551514,547.923706 
	C1156.365845,553.801453 1154.982178,558.274353 1154.164795,562.848450 
	C1148.657837,593.665894 1143.247681,624.500671 1137.875000,655.341919 
	C1137.211304,659.152405 1136.074341,662.456421 1132.146240,664.019104 
z"/>
<path fill="#010100" opacity="1.000000" stroke="none" 
	d="
M602.029053,548.036743 
	C601.843018,548.577698 601.607239,549.076355 601.371521,549.574951 
	C601.361877,549.128662 601.352173,548.682434 601.609375,548.075073 
	C601.876221,547.914001 601.979309,547.994324 602.029053,548.036743 
z"/>
<path fill="#000000" opacity="1.000000" stroke="none" 
	d="
M600.981079,873.001282 
	C601.046204,872.969971 600.915955,873.032593 600.981079,873.001282 
z"/>
<path fill="#000000" opacity="1.000000" stroke="none" 
	d="
M1718.610229,1702.707520 
	C1728.083984,1675.110596 1736.820068,1648.088135 1746.685181,1621.474976 
	C1747.527466,1621.470825 1748.369873,1621.466553 1749.212158,1621.462280 
	C1760.721191,1655.553955 1772.230225,1689.645630 1783.723633,1723.690796 
	C1775.275024,1726.973999 1722.051392,1727.214844 1711.878052,1724.021362 
	C1714.028320,1717.182739 1716.186890,1710.317993 1718.610229,1702.707520 
z"/>
<path fill="#000000" opacity="1.000000" stroke="none" 
	d="
M373.154938,1668.812988 
	C379.203552,1686.936890 384.999756,1704.312378 390.724884,1721.711182 
	C391.008209,1722.572510 390.673401,1723.637085 390.628998,1724.554321 
	C382.433502,1726.848877 330.129822,1726.942383 320.397644,1724.504639 
	C320.751404,1722.093018 320.745758,1719.465332 321.541718,1717.108398 
	C332.092560,1685.868286 342.751221,1654.664551 353.416443,1623.463257 
	C353.723602,1622.564331 354.399200,1621.791382 355.357941,1620.208740 
	C360.108765,1628.108643 361.718414,1636.567261 364.589874,1644.506592 
	C367.421844,1652.337036 370.127289,1660.213135 373.154938,1668.812988 
z"/>
<path fill="#010100" opacity="1.000000" stroke="none" 
	d="
M975.823730,1672.446411 
	C956.411133,1677.836304 937.351440,1675.180786 918.457031,1675.630249 
	C912.806396,1675.764771 912.268311,1671.797363 912.272339,1667.471191 
	C912.290588,1647.832153 912.279541,1628.192993 912.283264,1608.553955 
	C912.283386,1607.888794 912.346497,1607.223633 912.350403,1606.558350 
	C912.374268,1602.517578 914.332214,1600.346436 918.439880,1600.359619 
	C934.079956,1600.410156 949.854248,1599.206543 965.330872,1600.830566 
	C993.602722,1603.797241 1007.511536,1632.588989 993.811401,1657.806030 
	C989.988708,1664.842041 984.067627,1669.485352 975.823730,1672.446411 
z"/>
<path fill="#000000" opacity="1.000000" stroke="none" 
	d="
M1299.166992,2056.668213 
	C1293.230469,2077.086426 1281.379639,2090.928711 1261.115234,2096.096924 
	C1227.934937,2104.559326 1198.051025,2085.067627 1192.691650,2051.327637 
	C1190.474121,2037.366821 1191.583374,2023.583496 1197.652588,2010.355347 
	C1208.528931,1986.650146 1232.492798,1977.416016 1254.283691,1980.357178 
	C1277.760620,1983.526001 1295.315186,2000.723267 1299.953857,2024.271484 
	C1302.056396,2034.944580 1301.578491,2045.379272 1299.166992,2056.668213 
z"/>
<path fill="#495D40" opacity="1.000000" stroke="none" 
	d="
M1125.868408,783.926025 
	C1128.791748,769.773315 1131.974487,755.667236 1134.528442,741.448181 
	C1135.800537,734.366394 1135.921143,727.077698 1137.301025,718.683960 
	C1143.393066,714.067505 1142.552856,708.083069 1143.447754,703.138550 
	C1149.997437,666.946228 1156.094604,630.672241 1162.554932,594.463379 
	C1164.237061,585.034973 1166.698120,575.745483 1168.801392,566.392212 
	C1170.707642,568.206482 1172.614014,570.020752 1175.235474,572.675659 
	C1179.525146,586.455872 1177.540649,599.150818 1174.281372,611.793579 
	C1174.116455,612.433350 1174.134399,613.117859 1174.022339,613.773865 
	C1165.723633,662.330261 1157.601807,710.917847 1149.066528,759.432617 
	C1140.530029,807.954834 1131.585327,856.405273 1122.802002,904.883972 
	C1121.956421,909.550537 1121.379028,914.147949 1124.409424,918.333862 
	C1118.029663,924.848938 1111.649780,931.363953 1104.671875,937.311890 
	C1105.041626,927.863708 1105.554810,918.904968 1107.056274,910.114990 
	C1113.591431,871.856567 1120.500122,833.661804 1126.993164,795.396423 
	C1127.613159,791.741760 1126.289673,787.757324 1125.868408,783.926025 
z"/>
<path fill="#5E6638" opacity="1.000000" stroke="none" 
	d="
M1124.974731,917.982910 
	C1121.379028,914.147949 1121.956421,909.550537 1122.802002,904.883972 
	C1131.585327,856.405273 1140.530029,807.954834 1149.066528,759.432617 
	C1157.601807,710.917847 1165.723633,662.330261 1174.022339,613.773865 
	C1174.134399,613.117859 1174.116455,612.433350 1174.281372,611.793579 
	C1177.540649,599.150818 1179.525146,586.455872 1175.916870,572.701355 
	C1177.221436,569.328064 1178.559814,566.769592 1180.854980,564.445312 
	C1182.413452,571.441284 1183.084595,578.197876 1183.584351,584.967163 
	C1183.799683,587.882874 1183.007446,591.016968 1183.803589,593.718750 
	C1186.214111,601.899658 1189.177979,609.917603 1191.953125,618.672729 
	C1192.026611,620.244995 1192.073242,621.143555 1191.626709,622.585571 
	C1190.067261,625.877197 1188.548340,628.539490 1188.008423,631.387390 
	C1184.543213,649.664917 1181.196533,667.966431 1177.991089,686.291504 
	C1170.722656,727.844421 1163.582886,769.419800 1156.342285,810.977600 
	C1152.122803,835.195374 1147.822266,859.399048 1143.522827,883.602783 
	C1142.931396,886.931885 1141.920044,890.290405 1146.144775,892.085449 
	C1139.276489,900.600952 1132.408203,909.116455 1124.974731,917.982910 
z"/>
<path fill="#746F30" opacity="1.000000" stroke="none" 
	d="
M1146.661011,891.662109 
	C1141.920044,890.290405 1142.931396,886.931885 1143.522827,883.602783 
	C1147.822266,859.399048 1152.122803,835.195374 1156.342285,810.977600 
	C1163.582886,769.419800 1170.722656,727.844421 1177.991089,686.291504 
	C1181.196533,667.966431 1184.543213,649.664917 1188.008423,631.387390 
	C1188.548340,628.539490 1190.067261,625.877197 1192.007935,623.201904 
	C1195.309570,631.543701 1197.736938,639.812744 1200.239380,648.891846 
	C1200.974487,655.813354 1201.634399,661.924866 1201.688232,668.473877 
	C1199.476929,673.861694 1197.251343,678.703369 1196.362183,683.779175 
	C1187.149170,736.368408 1178.084839,788.984131 1169.226440,841.634094 
	C1168.548340,845.664795 1169.750366,850.011902 1170.078369,854.211914 
	C1162.444702,866.554199 1154.811035,878.896545 1146.661011,891.662109 
z"/>
<path fill="#A5831D" opacity="1.000000" stroke="none" 
	d="
M1202.294312,668.036377 
	C1201.634399,661.924866 1200.974487,655.813354 1200.864258,648.459595 
	C1202.275269,643.465149 1203.858643,639.717834 1203.883911,635.960083 
	C1204.086914,605.677734 1204.092163,575.392700 1203.892578,545.110229 
	C1203.862427,540.560181 1202.455200,536.019287 1201.685059,531.474121 
	C1205.345703,526.444763 1209.006348,521.415344 1213.228760,516.016968 
	C1214.521851,520.859558 1215.857544,526.067871 1215.886597,531.283386 
	C1216.077026,565.510254 1215.936401,599.738892 1216.047241,633.966431 
	C1216.061035,638.219116 1216.921021,642.468994 1217.822754,647.440613 
	C1217.615234,653.396667 1217.327271,658.704529 1216.275635,663.856445 
	C1208.690186,701.013794 1210.072876,737.837158 1219.968994,775.184937 
	C1215.051025,778.569031 1216.036865,783.257507 1216.023438,787.444031 
	C1215.948975,810.691040 1215.978760,833.938354 1215.987915,857.185608 
	C1215.994629,874.122742 1216.024658,891.059814 1216.046143,908.924194 
	C1211.481079,904.344299 1206.914307,898.837158 1202.537598,891.962463 
	C1203.151611,886.662659 1203.867798,882.736816 1203.954956,878.797119 
	C1205.034302,829.973877 1202.110596,781.115356 1205.780151,732.295715 
	C1206.948242,716.755798 1206.302124,701.044678 1205.811890,685.432983 
	C1205.628784,679.603027 1203.523315,673.833496 1202.294312,668.036377 
z"/>
<path fill="#8C7927" opacity="1.000000" stroke="none" 
	d="
M1201.688232,668.473877 
	C1203.523315,673.833496 1205.628784,679.603027 1205.811890,685.432983 
	C1206.302124,701.044678 1206.948242,716.755798 1205.780151,732.295715 
	C1202.110596,781.115356 1205.034302,829.973877 1203.954956,878.797119 
	C1203.867798,882.736816 1203.151611,886.662659 1202.322021,891.318970 
	C1197.930420,886.550354 1193.944580,881.057678 1190.197510,874.198486 
	C1190.907104,871.257812 1191.776245,869.686646 1191.787964,868.109009 
	C1191.906616,852.205872 1191.923096,836.301514 1191.837158,820.398132 
	C1191.829468,818.975708 1190.902588,817.558289 1189.581177,813.805420 
	C1183.051270,827.681152 1177.479126,839.521484 1171.906982,851.361816 
	C1171.581665,852.052124 1171.256348,852.742432 1170.504639,853.822388 
	C1169.750366,850.011902 1168.548340,845.664795 1169.226440,841.634094 
	C1178.084839,788.984131 1187.149170,736.368408 1196.362183,683.779175 
	C1197.251343,678.703369 1199.476929,673.861694 1201.688232,668.473877 
z"/>
<path fill="#385546" opacity="1.000000" stroke="none" 
	d="
M1125.443848,784.493347 
	C1126.289673,787.757324 1127.613159,791.741760 1126.993164,795.396423 
	C1120.500122,833.661804 1113.591431,871.856567 1107.056274,910.114990 
	C1105.554810,918.904968 1105.041626,927.863708 1104.096191,937.688110 
	C1099.927979,942.294434 1095.737183,945.957520 1090.972656,949.930237 
	C1086.274658,948.546936 1086.844604,945.317932 1087.450073,941.860962 
	C1090.776978,922.870972 1093.985596,903.860291 1097.269531,884.862732 
	C1099.421387,872.414734 1101.852539,860.009216 1103.677246,847.514343 
	C1104.202393,843.918396 1106.683105,839.680481 1101.982056,836.054321 
	C1109.255493,818.853088 1117.137451,801.956909 1125.443848,784.493347 
z"/>
<path fill="#746F30" opacity="1.000000" stroke="none" 
	d="
M1172.669434,851.301514 
	C1177.479126,839.521484 1183.051270,827.681152 1189.581177,813.805420 
	C1190.902588,817.558289 1191.829468,818.975708 1191.837158,820.398132 
	C1191.923096,836.301514 1191.906616,852.205872 1191.787964,868.109009 
	C1191.776245,869.686646 1190.907104,871.257812 1189.964844,873.544373 
	C1186.195557,868.991821 1183.021362,863.643372 1179.547729,858.496887 
	C1177.788208,855.890076 1175.487793,853.648132 1172.669434,851.301514 
z"/>
<path fill="#D5970B" opacity="1.000000" stroke="none" 
	d="
M1162.310547,200.406509 
	C1162.518433,196.548996 1162.725952,193.647034 1162.970337,190.226532 
	C1171.494019,190.226532 1179.303589,190.226532 1187.735107,190.226532 
	C1187.735107,259.849030 1187.735107,328.994080 1187.735107,398.910645 
	C1179.676147,398.910645 1171.878418,398.910645 1164.230469,398.910645 
	C1163.844482,398.535675 1163.582886,398.321930 1163.372681,398.066040 
	C1163.168823,397.817749 1162.865601,397.526489 1162.864746,397.253357 
	C1162.664917,331.956268 1162.487915,266.659149 1162.310547,200.406509 
z"/>
<path fill="#D5970B" opacity="1.000000" stroke="none" 
	d="
M1279.891602,269.719360 
	C1285.990845,256.329224 1291.720947,243.603683 1297.623779,230.958817 
	C1300.191528,225.458481 1302.390015,224.135559 1307.764648,226.523972 
	C1324.999512,234.182846 1327.421997,231.394531 1318.475220,250.741547 
	C1303.279663,283.601379 1288.498779,316.654358 1273.730957,349.709930 
	C1266.430298,366.051361 1266.619141,366.135742 1250.699463,358.695923 
	C1242.812622,355.010162 1242.107544,353.104645 1245.839111,344.858246 
	C1257.071167,320.035767 1268.338867,295.229340 1279.891602,269.719360 
z"/>
<path fill="#D5970B" opacity="1.000000" stroke="none" 
	d="
M1055.862915,322.226471 
	C1041.028809,297.430206 1026.505127,273.293762 1011.989746,249.171204 
	C1016.622009,241.913300 1023.743774,239.490448 1030.042969,236.136551 
	C1032.858887,234.637268 1035.865112,235.770981 1037.680298,238.874634 
	C1040.362427,243.460709 1043.125854,247.999359 1045.864624,252.552200 
	C1064.689087,283.845795 1083.530884,315.128906 1102.333862,346.435394 
	C1108.322266,356.406036 1108.079834,357.167969 1097.840210,363.268616 
	C1085.232666,370.780121 1085.212158,370.775940 1077.348633,357.811432 
	C1070.288208,346.170990 1063.231567,334.528107 1055.862915,322.226471 
z"/>
<path fill="#385546" opacity="1.000000" stroke="none" 
	d="
M1168.630615,565.780518 
	C1166.698120,575.745483 1164.237061,585.034973 1162.554932,594.463379 
	C1156.094604,630.672241 1149.997437,666.946228 1143.447754,703.138550 
	C1142.552856,708.083069 1143.393066,714.067505 1137.426514,717.778687 
	C1135.961914,704.854309 1135.209351,691.628906 1134.201904,678.422974 
	C1133.875244,674.142578 1132.880737,669.913208 1132.168945,664.839783 
	C1136.074341,662.456421 1137.211304,659.152405 1137.875000,655.341919 
	C1143.247681,624.500671 1148.657837,593.665894 1154.164795,562.848450 
	C1154.982178,558.274353 1156.365845,553.801453 1157.786987,548.560669 
	C1161.544312,553.615967 1165.002075,559.392334 1168.630615,565.780518 
z"/>
<path fill="#8C7927" opacity="1.000000" stroke="none" 
	d="
M1201.097900,531.816772 
	C1202.455200,536.019287 1203.862427,540.560181 1203.892578,545.110229 
	C1204.092163,575.392700 1204.086914,605.677734 1203.883911,635.960083 
	C1203.858643,639.717834 1202.275269,643.465149 1200.789062,647.649536 
	C1197.736938,639.812744 1195.309570,631.543701 1192.500977,622.658386 
	C1192.073242,621.143555 1192.026611,620.244995 1192.353027,617.948792 
	C1193.121704,614.623047 1193.851318,612.696716 1193.861084,610.766663 
	C1193.955933,591.921814 1194.030273,573.075256 1193.831543,554.232178 
	C1193.801880,551.419739 1192.328125,548.622437 1191.522461,545.818115 
	C1194.518555,541.265259 1197.514648,536.712341 1201.097900,531.816772 
z"/>
<path fill="#746F30" opacity="1.000000" stroke="none" 
	d="
M1191.013672,546.243835 
	C1192.328125,548.622437 1193.801880,551.419739 1193.831543,554.232178 
	C1194.030273,573.075256 1193.955933,591.921814 1193.861084,610.766663 
	C1193.851318,612.696716 1193.121704,614.623047 1192.326172,617.275085 
	C1189.177979,609.917603 1186.214111,601.899658 1183.803589,593.718750 
	C1183.007446,591.016968 1183.799683,587.882874 1183.584351,584.967163 
	C1183.084595,578.197876 1182.413452,571.441284 1181.245361,563.967102 
	C1183.954224,557.726318 1187.229492,552.197937 1191.013672,546.243835 
z"/>
<path fill="#D5970B" opacity="1.000000" stroke="none" 
	d="
M1518.272949,696.251404 
	C1512.427124,701.222534 1507.082520,705.679138 1500.931519,710.808228 
	C1517.493408,734.352539 1534.119995,757.988770 1551.745605,783.045044 
	C1537.382202,783.045044 1525.236572,783.045044 1512.666382,783.045044 
	C1502.025635,767.996704 1491.267944,752.778259 1480.505249,737.563416 
	C1469.760742,722.374573 1459.011475,707.189148 1447.973145,691.590942 
	C1440.036865,694.506775 1435.902222,700.728455 1434.249756,707.726929 
	C1431.364258,719.948547 1429.592651,732.454895 1427.794434,744.905396 
	C1425.999512,757.333740 1424.744385,769.839966 1423.175537,782.957153 
	C1412.089722,782.957153 1401.655396,782.957153 1390.431030,782.957153 
	C1391.624756,772.325806 1392.713379,762.192139 1393.912231,752.071594 
	C1395.279175,740.532593 1396.427734,728.955322 1398.236206,717.483765 
	C1401.540283,696.524963 1410.455811,678.852783 1430.313843,667.291321 
	C1417.470947,649.053711 1404.938599,631.257141 1391.232056,611.793091 
	C1404.671387,611.793091 1416.454346,611.561157 1428.209839,612.023010 
	C1430.150757,612.099304 1432.334106,614.951660 1433.792847,616.964844 
	C1447.856079,636.374451 1461.782227,655.883362 1475.763062,675.352722 
	C1478.438232,679.077942 1481.181152,682.754395 1484.138062,686.787842 
	C1492.471802,681.611267 1498.167114,675.314026 1499.868164,666.388062 
	C1502.163574,654.344849 1503.827393,642.179749 1505.682373,630.054688 
	C1506.576782,624.208740 1507.288818,618.334900 1508.130859,612.123291 
	C1518.837769,612.123291 1529.028198,612.123291 1540.482422,612.123291 
	C1539.641479,620.470581 1539.113281,628.292664 1538.010742,636.033020 
	C1536.467773,646.863892 1534.791260,657.693298 1532.624146,668.412720 
	C1530.543701,678.703064 1525.531616,687.712585 1518.272949,696.251404 
z"/>
<path fill="#0E4356" opacity="1.000000" stroke="none" 
	d="
M928.961853,663.747009 
	C925.050720,651.577393 916.833008,644.821350 905.968872,640.883240 
	C892.982056,636.175720 871.151672,634.739807 856.700256,637.797607 
	C856.405518,641.302063 855.813293,645.140320 855.802734,648.980164 
	C855.723083,677.958252 855.875305,706.937500 855.674194,735.914490 
	C855.623596,743.200806 854.803833,750.511230 853.897217,757.755432 
	C852.478882,769.089111 845.860107,776.669434 835.372131,780.507446 
	C819.442139,786.336914 803.324158,785.105652 787.248108,780.750183 
	C782.838440,779.555481 781.340210,776.715881 782.279175,772.492249 
	C783.422668,767.348694 784.757263,762.247620 786.093994,756.781372 
	C789.091309,756.781372 791.332092,756.674866 793.559021,756.804810 
	C797.531982,757.036682 801.504211,757.750793 805.463440,757.663452 
	C817.954895,757.388062 823.459351,752.508301 823.586426,740.107849 
	C823.910583,708.468628 823.700989,676.823669 823.634949,645.181213 
	C823.630981,643.258850 823.016052,641.337769 822.658752,639.261902 
	C812.141052,635.471191 801.971741,640.663330 791.506653,639.318726 
	C787.982117,631.860535 787.407715,624.117371 788.507507,615.001099 
	C791.726440,614.151978 795.088501,612.802063 798.556702,612.422791 
	C828.741272,609.122192 859.039734,609.054688 889.316528,610.272339 
	C898.885132,610.657166 908.558960,612.330627 917.859375,614.694336 
	C939.603333,620.220520 954.557251,633.758118 959.713623,655.840820 
	C962.561157,668.036011 963.741455,680.815857 964.038391,693.370850 
	C964.668274,720.002625 964.283569,746.659912 964.196899,773.306335 
	C964.165344,783.010376 963.520386,783.564880 954.129761,783.763489 
	C949.468933,783.862061 944.796875,783.925232 940.142456,783.720093 
	C933.423889,783.423828 932.702087,782.694763 932.311890,776.196045 
	C932.112610,772.876465 932.241760,769.536438 932.241333,766.205688 
	C932.238220,743.889038 932.568298,721.565674 932.105774,699.258606 
	C931.865234,687.661438 930.228027,676.093201 928.961853,663.747009 
z"/>
</svg>